<svg xmlns="http://www.w3.org/2000/svg" width="21" height="18" viewBox="0 0 21 18">
    <path fill="#BCCBCB" fill-rule="evenodd" d="M19.118 16.233H16.41V3.923h2.707v12.31zm-6.491 0h2.707V8.125h-2.707v8.108zm-1.078-8.647v8.647H8.842V1.378h2.707v6.208zm-6.492 8.647h2.707v-4.119H5.057v4.119zm-3.784 0H3.98V6.994H1.273v9.239zM19.657 2.844h-3.785a.539.539 0 0 0-.538.54v3.664h-2.707V.839a.539.539 0 0 0-.54-.538H8.304a.539.539 0 0 0-.539.538v10.197H5.057v-4.58a.539.539 0 0 0-.538-.54H.734a.539.539 0 0 0-.538.54v10.316c0 .297.24.539.538.539H19.656c.298 0 .54-.242.54-.539V3.383a.539.539 0 0 0-.539-.539z"/>
</svg>
