<svg xmlns="http://www.w3.org/2000/svg" width="32" height="32" viewBox="0 0 32 32" version="1.1"><title>plus-button@2x</title><desc>Created with Sketch.</desc><g stroke="none" stroke-width="1" fill="none" fill-rule="evenodd"><g transform="translate(-423.000000, -130.000000)" fill-rule="nonzero" fill="#373737"><g transform="translate(407.000000, 104.000000)"><g transform="translate(16.000000, 26.000000)"><path d="M15.5 31.1C7 31.1 0 24.1 0 15.5 0 7 7 0 15.5 0 24.1 0 31.1 7 31.1 15.5 31.1 24.1 24.1 31.1 15.5 31.1ZM15.5 1.8C7.9 1.8 1.8 7.9 1.8 15.5 1.8 23.1 7.9 29.3 15.5 29.3 23.1 29.3 29.3 23.1 29.3 15.5 29.3 7.9 23.1 1.8 15.5 1.8ZM21.7 16.4L9.4 16.4C8.9 16.4 8.5 16 8.5 15.5 8.5 15 8.9 14.6 9.4 14.6L21.7 14.6C22.1 14.6 22.5 15 22.5 15.5 22.5 16 22.1 16.4 21.7 16.4ZM15.5 22.5C15 22.5 14.6 22.1 14.6 21.7L14.6 9.4C14.6 8.9 15 8.5 15.5 8.5 16 8.5 16.4 8.9 16.4 9.4L16.4 21.7C16.4 22.1 16 22.5 15.5 22.5Z"/></g></g></g></g></svg>