<svg xmlns="http://www.w3.org/2000/svg" width="30" height="30" viewBox="0 0 30 30" version="1.1"><g stroke="none" stroke-width="1" fill="none" fill-rule="evenodd"><g transform="translate(-235.000000, -701.000000)" stroke="#00AA5A" stroke-width="2" fill="#00AA5A" fill-rule="nonzero"><g transform="translate(166.000000, 76.000000)"><g transform="translate(70.000000, 626.000000)"><path d="M14 0C6.3 0 0 6.3 0 14 0 21.7 6.3 28 14 28 21.7 28 28 21.7 28 14 28 6.3 21.7 0 14 0ZM14 26.9C6.9 26.9 1.1 21.1 1.1 14 1.1 6.9 6.9 1.1 14 1.1 21.1 1.1 26.9 6.9 26.9 14 26.9 21.1 21.1 26.9 14 26.9ZM21 13.5L14.8 13.5 14.8 7.5C14.8 7.2 14.6 7 14.3 7 14 7 13.7 7.2 13.7 7.5L13.7 13.5 7.5 13.5C7.2 13.5 7 13.7 7 14 7 14.3 7.2 14.5 7.5 14.5L13.7 14.5 13.7 21C13.7 21.3 14 21.5 14.3 21.5 14.6 21.5 14.8 21.3 14.8 21L14.8 14.5 21 14.5C21.3 14.5 21.5 14.3 21.5 14 21.5 13.7 21.3 13.5 21 13.5Z"/></g></g></g></g></svg>