<svg xmlns="http://www.w3.org/2000/svg" width="66" height="66" viewBox="0 0 66 66" version="1.1"><title>plus-button@2x</title><desc>Created with Sketch.</desc><g stroke="none" stroke-width="1" fill="none" fill-rule="evenodd"><g transform="translate(-488.000000, -309.000000)" fill-rule="nonzero" fill="#979797"><g transform="translate(488.000000, 309.000000)"><path d="M33 66C14.8 66 0 51.2 0 33 0 14.8 14.8 0 33 0 51.2 0 66 14.8 66 33 66 51.2 51.2 66 33 66ZM33 3.8C16.9 3.8 3.8 16.9 3.8 33 3.8 49.1 16.9 62.2 33 62.2 49.1 62.2 62.2 49.1 62.2 33 62.2 16.9 49.1 3.8 33 3.8ZM46 34.9L20 34.9C18.9 34.9 18.1 34 18.1 33 18.1 32 18.9 31.1 20 31.1L46 31.1C47.1 31.1 47.9 32 47.9 33 47.9 34 47.1 34.9 46 34.9ZM33 47.9C32 47.9 31.1 47.1 31.1 46L31.1 20C31.1 18.9 32 18.1 33 18.1 34 18.1 34.9 18.9 34.9 20L34.9 46C34.9 47.1 34 47.9 33 47.9Z"/></g></g></g></svg>