<svg xmlns="http://www.w3.org/2000/svg" width="37" height="33" viewBox="0 0 37 33" version="1.1"><g stroke="none" stroke-width="1" fill="none" fill-rule="evenodd"><g transform="translate(-38.000000, -10.000000)" fill-rule="nonzero" fill="#FFFFFF"><g transform="translate(38.000000, 10.000000)"><path d="M34 0L3 0C1.4 0 0 1.4 0 3.1L0 21.5C0 23.2 1.4 24.5 3 24.5L4.8 24.5 4.8 32.1C4.8 32.4 5 32.8 5.3 32.9 5.4 32.9 5.5 33 5.6 33 5.9 33 6.1 32.9 6.3 32.7L14.3 24.5 34 24.5C35.6 24.5 37 23.2 37 21.5L37 3.1C37 1.4 35.6 0 34 0ZM34 22.8L14 22.8C13.7 22.8 13.5 22.9 13.4 23 13.4 23 13.4 23 13.4 23 13.4 23 13.3 23 13.3 23L6.5 30 6.5 23.7C6.5 23.6 6.5 23.6 6.5 23.6 6.5 23.1 6.1 22.8 5.6 22.8L3 22.8C2.3 22.8 1.7 22.2 1.7 21.5L1.7 3.1C1.7 2.4 2.3 1.8 3 1.8L34 1.8C34.7 1.8 35.3 2.4 35.3 3.1L35.3 21.5 35.3 21.5C35.3 22.2 34.7 22.8 34 22.8ZM12.6 6.4L7.6 6.4C7.1 6.4 6.7 6.8 6.7 7.3 6.7 7.8 7.1 8.2 7.6 8.2L12.6 8.2C13 8.2 13.4 7.8 13.4 7.3 13.4 6.8 13 6.4 12.6 6.4ZM21.5 11.4L7.6 11.4C7.1 11.4 6.7 11.8 6.7 12.3 6.7 12.8 7.1 13.2 7.6 13.2L21.5 13.2C22 13.2 22.4 12.8 22.4 12.3 22.4 11.8 22 11.4 21.5 11.4ZM29.4 6.4L17.6 6.4C17.1 6.4 16.7 6.8 16.7 7.3 16.7 7.8 17.1 8.2 17.6 8.2L29.4 8.2C29.9 8.2 30.3 7.8 30.3 7.3 30.3 6.8 29.9 6.4 29.4 6.4ZM29.4 11.4L26.3 11.4C25.9 11.4 25.5 11.8 25.5 12.3 25.5 12.8 25.9 13.2 26.3 13.2L29.4 13.2C29.9 13.2 30.3 12.8 30.3 12.3 30.3 11.8 29.9 11.4 29.4 11.4ZM15.3 16.4L7.6 16.4C7.1 16.4 6.7 16.8 6.7 17.3 6.7 17.8 7.1 18.2 7.6 18.2L15.3 18.2C15.8 18.2 16.2 17.8 16.2 17.3 16.2 16.8 15.8 16.4 15.3 16.4ZM29.4 16.4L19.9 16.4C19.4 16.4 19.1 16.8 19.1 17.3 19.1 17.8 19.4 18.2 19.9 18.2L29.4 18.2C29.9 18.2 30.3 17.8 30.3 17.3 30.3 16.8 29.9 16.4 29.4 16.4Z"/></g></g></g></svg>