<svg xmlns="http://www.w3.org/2000/svg" width="26" height="30" viewBox="0 0 26 30" version="1.1"><title>cone Arquitetura - preenchido@2x</title><desc>Created with Sketch.</desc><g stroke="none" stroke-width="1" fill="none" fill-rule="evenodd"><g transform="translate(-23.000000, -170.000000)" fill="#373737"><g transform="translate(23.000000, 170.000000)"><path d="M7.2 3.6C7.7 3.6 8 4 8 4.4 8 4.8 7.7 5.2 7.2 5.2 6.8 5.2 6.5 4.8 6.5 4.4 6.5 4 6.8 3.6 7.2 3.6M7.2 10.3C7.7 10.3 8 10.7 8 11.1 8 11.5 7.7 11.8 7.2 11.8 6.8 11.8 6.5 11.5 6.5 11.1 6.5 10.7 6.8 10.3 7.2 10.3M23.6 4.6C23.6 5.9 22.5 7 21.1 7L4.9 7C3.5 7 2.5 5.9 2.5 4.6L2.5 4.2C2.5 2.9 3.5 1.8 4.9 1.8L21.1 1.8C22.5 1.8 23.6 2.9 23.6 4.2L23.6 4.6ZM23.6 10.9L23.6 11.3C23.6 12.6 22.5 13.7 21.1 13.7L4.9 13.7C3.5 13.7 2.5 12.6 2.5 11.3L2.5 10.9C2.5 9.6 3.5 8.5 4.9 8.5L21.1 8.5C22.5 8.5 23.6 9.6 23.6 10.9L23.6 10.9ZM23.6 17.6L23.6 18C23.6 19.3 22.5 20.4 21.1 20.4L4.9 20.4C3.5 20.4 2.5 19.3 2.5 18L2.5 17.6C2.5 16.3 3.5 15.2 4.9 15.2L21.1 15.2C22.5 15.2 23.6 16.3 23.6 17.6L23.6 17.6ZM25 4.6L25 4.2C25 2 23.3 0.3 21.1 0.3L4.9 0.3C2.7 0.3 1 2.1 1 4.2L1 4.6C1 5.9 1.6 7 2.6 7.7 1.6 8.5 1 9.6 1 10.9L1 11.3C1 12.6 1.6 13.7 2.6 14.4 1.6 15.2 1 16.3 1 17.6L1 18C1 20.1 2.7 21.9 4.9 21.9L21.1 21.9C23.3 21.9 25 20.1 25 18L25 17.6C25 16.3 24.4 15.2 23.4 14.4 24.4 13.7 25 12.6 25 11.3L25 10.9C25 9.6 24.4 8.5 23.4 7.7 24.4 7 25 5.9 25 4.6L25 4.6ZM19.5 3.6L12.8 3.6C12.4 3.6 12 4 12 4.4 12 4.8 12.4 5.1 12.8 5.1L19.5 5.1C19.9 5.1 20.3 4.8 20.3 4.4 20.3 4 19.9 3.6 19.5 3.6M12.8 11.8L19.5 11.8C19.9 11.8 20.3 11.5 20.3 11.1 20.3 10.7 19.9 10.3 19.5 10.3L12.8 10.3C12.4 10.3 12 10.7 12 11.1 12 11.5 12.4 11.8 12.8 11.8M12.8 18.5L19.5 18.5C19.9 18.5 20.3 18.2 20.3 17.8 20.3 17.4 19.9 17 19.5 17L12.8 17C12.4 17 12 17.4 12 17.8 12 18.2 12.4 18.5 12.8 18.5M7.2 17C7.7 17 8 17.4 8 17.8 8 18.2 7.7 18.5 7.2 18.5 6.8 18.5 6.5 18.2 6.5 17.8 6.5 17.4 6.8 17 7.2 17M13 28.5C12.5 28.5 12.1 28.1 12.1 27.7 12.1 27.2 12.5 26.8 13 26.8 13.5 26.8 13.9 27.2 13.9 27.7 13.9 28.1 13.5 28.5 13 28.5M2.3 28.5C1.9 28.5 1.5 28.1 1.5 27.7 1.5 27.2 1.9 26.8 2.3 26.8 2.8 26.8 3.2 27.2 3.2 27.7 3.2 28.1 2.8 28.5 2.3 28.5M23.7 26.8C24.1 26.8 24.5 27.2 24.5 27.7 24.5 28.1 24.1 28.5 23.7 28.5 23.2 28.5 22.8 28.1 22.8 27.7 22.8 27.2 23.2 26.8 23.7 26.8M15.2 28.4L21.4 28.4C21.7 29.3 22.6 30 23.7 30 24.9 30 26 28.9 26 27.7 26 26.4 24.9 25.3 23.7 25.3 22.6 25.3 21.7 26 21.4 26.9L15.2 26.9C15 26.2 14.5 25.7 13.8 25.4L13.8 23.9C13.8 23.5 13.4 23.1 13 23.1 12.6 23.1 12.3 23.5 12.3 23.9L12.3 25.4C11.6 25.7 11 26.2 10.8 26.9L4.6 26.9C4.3 26 3.4 25.3 2.3 25.3 1.1 25.3 0 26.4 0 27.7 0 28.9 1.1 30 2.3 30 3.4 30 4.3 29.3 4.6 28.4L10.8 28.4C11.1 29.3 12 30 13 30 14 30 14.9 29.3 15.2 28.4"/></g></g></g></svg>