<?xml version="1.0" encoding="UTF-8"?>
<svg width="21px" height="20px" viewBox="0 0 21 20" version="1.1" xmlns="http://www.w3.org/2000/svg" xmlns:xlink="http://www.w3.org/1999/xlink">
    <!-- Generator: Sketch 45.2 (43514) - http://www.bohemiancoding.com/sketch -->
    <title>ic_calendario</title>
    <desc>Created with Sketch.</desc>
    <defs></defs>
    <g id="Symbols" stroke="none" stroke-width="1" fill="none" fill-rule="evenodd">
        <g id="Filtro-Atendimento" transform="translate(-297.000000, -21.000000)" fill="white">
            <g id="Group-4">
                <g id="Group-5">
                    <g id="data" transform="translate(75.000000, 16.000000)">
                        <g id="ícone-calendário" transform="translate(222.000000, 5.000000)">
                            <g id="Calendário-1">
                                <path d="M19.25,18.3331 C19.25,18.5631 19.063,18.7501 18.834,18.7501 L2.167,18.7501 C1.937,18.7501 1.75,18.5631 1.75,18.3331 L1.75,3.5411 C1.75,3.3121 1.937,3.1251 2.167,3.1251 L4.875,3.1251 L4.875,4.3751 C4.875,4.7201 5.155,5.0001 5.5,5.0001 C5.845,5.0001 6.125,4.7201 6.125,4.3751 L6.125,3.1251 L9.875,3.1251 L9.875,4.3751 C9.875,4.7201 10.155,5.0001 10.5,5.0001 C10.845,5.0001 11.125,4.7201 11.125,4.3751 L11.125,3.1251 L14.875,3.1251 L14.875,4.3751 C14.875,4.7201 15.154,5.0001 15.5,5.0001 C15.846,5.0001 16.125,4.7201 16.125,4.3751 L16.125,3.1251 L18.834,3.1251 C19.063,3.1251 19.25,3.3121 19.25,3.5411 L19.25,18.3331 Z M18.834,1.8751 L16.125,1.8751 L16.125,0.6251 C16.125,0.2791 15.846,0.0001 15.5,0.0001 C15.154,0.0001 14.875,0.2791 14.875,0.6251 L14.875,1.8751 L11.125,1.8751 L11.125,0.6251 C11.125,0.2791 10.845,0.0001 10.5,0.0001 C10.155,0.0001 9.875,0.2791 9.875,0.6251 L9.875,1.8751 L6.125,1.8751 L6.125,0.6251 C6.125,0.2791 5.845,0.0001 5.5,0.0001 C5.155,0.0001 4.875,0.2791 4.875,0.6251 L4.875,1.8751 L2.167,1.8751 C1.246,1.8751 0.5,2.6211 0.5,3.5411 L0.5,18.3331 C0.5,19.2541 1.246,20.0001 2.167,20.0001 L18.834,20.0001 C19.754,20.0001 20.5,19.2541 20.5,18.3331 L20.5,3.5411 C20.5,2.6211 19.754,1.8751 18.834,1.8751 L18.834,1.8751 Z" id="Fill-11"></path>
                                <polygon id="Fill-12" points="4.875 9.375 7.375 9.375 7.375 7.5 4.875 7.5"></polygon>
                                <polygon id="Fill-13" points="4.875 12.5 7.375 12.5 7.375 10.625 4.875 10.625"></polygon>
                                <polygon id="Fill-14" points="4.875 15.625 7.375 15.625 7.375 13.75 4.875 13.75"></polygon>
                                <polygon id="Fill-15" points="9.25 15.625 11.75 15.625 11.75 13.75 9.25 13.75"></polygon>
                                <polygon id="Fill-16" points="9.25 12.5 11.75 12.5 11.75 10.625 9.25 10.625"></polygon>
                                <polygon id="Fill-17" points="9.25 9.375 11.75 9.375 11.75 7.5 9.25 7.5"></polygon>
                                <polygon id="Fill-18" points="13.625 15.625 16.125 15.625 16.125 13.75 13.625 13.75"></polygon>
                                <polygon id="Fill-19" points="13.625 12.5 16.125 12.5 16.125 10.625 13.625 10.625"></polygon>
                                <polygon id="Fill-20" points="13.625 9.375 16.125 9.375 16.125 7.5 13.625 7.5"></polygon>
                            </g>
                        </g>
                    </g>
                </g>
            </g>
        </g>
    </g>
</svg>