<svg xmlns="http://www.w3.org/2000/svg" width="36" height="32" viewBox="0 0 36 32" version="1.1"><title>checklist</title><desc>Created with Sketch.</desc><g stroke="none" stroke-width="1" fill="none" fill-rule="evenodd"><g transform="translate(-246.000000, -863.000000)" fill-rule="nonzero" stroke="#373737" fill="#373737"><g transform="translate(247.000000, 864.000000)"><path d="M5.3 0L1.5 0C0.7 0 0 0.7 0 1.6L0 5.4C0 6.3 0.7 6.9 1.5 6.9L5.3 6.9C6.1 6.9 6.8 6.3 6.8 5.4L6.8 1.6C6.8 0.7 6.1 0 5.3 0ZM5.3 5.4L1.5 5.4 1.5 1.5 1.5 1.5 5.3 1.5 5.3 5.4ZM33.2 2.3L10.6 2.3C10.2 2.3 9.9 2.7 9.9 3.1 9.9 3.5 10.2 3.9 10.6 3.9L33.2 3.9C33.7 3.9 34 3.5 34 3.1 34 2.7 33.7 2.3 33.2 2.3ZM5.3 11.5L1.5 11.5C0.7 11.5 0 12.2 0 13.1L0 16.9C0 17.8 0.7 18.5 1.5 18.5L5.3 18.5C6.1 18.5 6.8 17.8 6.8 16.9L6.8 13.1C6.8 12.2 6.1 11.5 5.3 11.5ZM5.3 16.9L1.5 16.9 1.5 13 1.5 13 5.3 13 5.3 16.9ZM33.2 13.8L10.6 13.8C10.2 13.8 9.9 14.2 9.9 14.6 9.9 15 10.2 15.4 10.6 15.4L33.2 15.4C33.7 15.4 34 15 34 14.6 34 14.2 33.7 13.8 33.2 13.8ZM5.3 23.1L1.5 23.1C0.7 23.1 0 23.7 0 24.6L0 28.4C0 29.3 0.7 30 1.5 30L5.3 30C6.1 30 6.8 29.3 6.8 28.4L6.8 24.6C6.8 23.7 6.1 23.1 5.3 23.1ZM5.3 28.4L1.5 28.4 1.5 24.5 1.5 24.5 5.3 24.5 5.3 28.4ZM33.2 25.4L10.6 25.4C10.2 25.4 9.9 25.7 9.9 26.1 9.9 26.5 10.2 26.9 10.6 26.9L33.2 26.9C33.7 26.9 34 26.5 34 26.1 34 25.7 33.7 25.4 33.2 25.4Z"/></g></g></g></svg>