<svg xmlns="http://www.w3.org/2000/svg" width="14" height="14" viewBox="0 0 14 14" version="1.1"><title>Stroke 5</title><desc>Created with Sketch.</desc><g stroke="none" stroke-width="1" fill="none" fill-rule="evenodd"><g transform="translate(-1225.000000, -114.000000)" stroke="#FFFFFF" stroke-width="0.5" fill="#FFFFFF"><g transform="translate(929.000000, 97.000000)"><path d="M302.7 24.2L297.1 29.8C297 29.9 297 30.2 297.1 30.4 297.2 30.4 297.3 30.5 297.4 30.5 297.5 30.5 297.6 30.4 297.7 30.4L303.3 24.8 308.9 30.4C309 30.4 309.1 30.5 309.2 30.5 309.3 30.5 309.4 30.4 309.4 30.4 309.6 30.2 309.6 29.9 309.4 29.8L303.9 24.2 309.4 18.7C309.6 18.5 309.6 18.3 309.4 18.1 309.3 18 309 18 308.9 18.1L303.3 23.7 297.7 18.1C297.5 18 297.3 18 297.1 18.1 297 18.3 297 18.5 297.1 18.7L302.7 24.2Z"/></g></g></g></svg>