<svg xmlns="http://www.w3.org/2000/svg" width="33" height="30" viewBox="0 0 33 30" version="1.1"><title>cone Dash@2x</title><desc>Created with Sketch.</desc><g stroke="none" stroke-width="1" fill="none" fill-rule="evenodd"><g transform="translate(-20.000000, -96.000000)" fill="#8A8A8A"><g transform="translate(20.000000, 96.000000)"><path d="M32.2 27.9L0.8 27.9C0.3 27.9 0 28.3 0 28.7 0 29.1 0.3 29.5 0.8 29.5L32.2 29.5C32.7 29.5 33 29.1 33 28.7 33 28.3 32.7 27.9 32.2 27.9M29.4 23.6L25.5 23.6 25.5 11.1 25.5 5.8 29.4 5.8 29.4 23.6ZM20 23.6L23.9 23.6 23.9 11.8 20 11.8 20 23.6ZM18.5 11.1L18.5 23.6 14.5 23.6 14.5 2.1 18.5 2.1 18.5 11.1ZM9.1 23.6L13 23.6 13 17.6 9.1 17.6 9.1 23.6ZM3.6 23.6L7.5 23.6 7.5 10.2 3.6 10.2 3.6 23.6ZM30.2 4.2L24.7 4.2C24.3 4.2 23.9 4.5 23.9 5L23.9 10.3 20 10.3 20 1.3C20 0.9 19.7 0.5 19.2 0.5L13.8 0.5C13.3 0.5 13 0.9 13 1.3L13 16 9.1 16 9.1 9.4C9.1 9 8.7 8.6 8.3 8.6L2.8 8.6C2.4 8.6 2 9 2 9.4L2 24.3C2 24.8 2.4 25.1 2.8 25.1L8.3 25.1 13.8 25.1 19.2 25.1 24.7 25.1 30.2 25.1C30.6 25.1 31 24.8 31 24.3L31 5C31 4.5 30.6 4.2 30.2 4.2L30.2 4.2Z"/></g></g></g></svg>