<svg xmlns="http://www.w3.org/2000/svg" xmlns:xlink="http://www.w3.org/1999/xlink" width="30px" height="30px" viewBox="0 0 30 30" version="1.1">
  <#comment/>
  <title>
    Group
  </title>
  <desc>
    Created with Sketch.
  </desc>
  <defs/>
  <g id="Page-1" stroke="none" stroke-width="1" fill="none" fill-rule="evenodd">
    <g id="Config---Usurio-Criado-Copy" transform="translate(-931.000000, -1095.000000)" fill-rule="nonzero">
      <g id="Paramtros-Copy-2" transform="translate(247.000000, 1094.000000)">
        <g id="plus-copy" transform="translate(685.000000, 2.000000)">
          <g id="Capa_1">
            <g id="Group">
              <path d="M14 0C6.28061538 0 0 6.28007692 0 14 0 21.7199231 6.28061538 28 14 28 21.7193846 28 28 21.7199231 28 14 28 6.28007692 21.7193846 0 14 0ZM14 26.9230769C6.87453846 26.9230769 1.07692308 21.1254615 1.07692308 14 1.07692308 6.87453846 6.87453846 1.07692308 14 1.07692308 21.1254615 1.07692308 26.9230769 6.87453846 26.9230769 14 26.9230769 21.1254615 21.1254615 26.9230769 14 26.9230769Z" id="Shape" stroke="#00AA5A" stroke-width="2" fill="#00AA5A"/>
              <path d="M7.16153846 14.4333333C7.05384615 14.3244444 7 14.1611111 7 14.0522222 7 13.9433333 7.05384615 13.78 7.16153846 13.6711111L7.91538462 12.9088889C8.13076923 12.6911111 8.45384615 12.6911111 8.66923077 12.9088889L8.72307692 12.9633333 11.6846154 16.1755556C11.7923077 16.2844444 11.9538462 16.2844444 12.0615385 16.1755556L19.2769231 8.60777778 19.3307692 8.60777778 19.3307692 8.60777778C19.5461538 8.39 19.8692308 8.39 20.0846154 8.60777778L20.8384615 9.37C21.0538462 9.58777778 21.0538462 9.91444444 20.8384615 10.1322222L20.8384615 10.1322222 12.2230769 19.17C12.1153846 19.2788889 12.0076923 19.3333333 11.8461538 19.3333333 11.6846154 19.3333333 11.5769231 19.2788889 11.4692308 19.17L7.26923077 14.5966667 7.16153846 14.4333333 7.16153846 14.4333333Z" id="Shape" stroke="#00A24D" fill="#00A24D"/>
            </g>
          </g>
        </g>
      </g>
    </g>
  </g>
</svg>
