<svg xmlns="http://www.w3.org/2000/svg" width="28" height="28" viewBox="0 0 28 28" version="1.1"><title>united-states@2x</title><desc>Created with Sketch.</desc><g stroke="none" stroke-width="1" fill="none" fill-rule="evenodd"><g transform="translate(-923.000000, -98.000000)" fill-rule="nonzero"><g transform="translate(923.000000, 98.000000)"><circle fill="#F0F0F0" cx="13.9" cy="13.9" r="13.9"/><g transform="translate(0.435697, 2.995418)" fill="#D80027"><path d="M12.9 10.9L27.4 10.9C27.4 9.7 27.3 8.5 27 7.3L12.9 7.3 12.9 10.9ZM12.9 3.7L25.4 3.7C24.5 2.3 23.5 1 22.2 0L12.9 0 12.9 3.7ZM13.5 24.9C16.8 24.9 19.8 23.8 22.2 21.9L4.8 21.9C7.2 23.8 10.2 24.9 13.5 24.9ZM1.6 18.2L25.4 18.2C26.1 17.1 26.6 15.9 27 14.6L0 14.6C0.4 15.9 0.9 17.1 1.6 18.2Z"/></g><path d="M6.5 2.2L7.7 2.2 6.5 3 7 4.4 5.8 3.6 4.6 4.4 5 3.2C4 4.1 3.1 5.1 2.3 6.2L2.7 6.2 2 6.8C1.9 7 1.7 7.2 1.6 7.4L2 8.5 1.3 8C1.2 8.4 1 8.7 0.9 9.1L1.3 10.3 2.7 10.3 1.5 11.2 2 12.5 0.8 11.7 0.1 12.2C0 12.8 0 13.4 0 13.9L13.9 13.9 13.9 0C11.2 0 8.6 0.8 6.5 2.2ZM7 12.5L5.8 11.7 4.6 12.5 5.1 11.2 3.9 10.3 5.4 10.3 5.8 8.9 6.3 10.3 7.7 10.3 6.5 11.2 7 12.5ZM6.5 7.1L7 8.5 5.8 7.6 4.6 8.5 5.1 7.1 3.9 6.2 5.4 6.2 5.8 4.8 6.3 6.2 7.7 6.2 6.5 7.1ZM12 12.5L10.8 11.7 9.6 12.5 10.1 11.2 8.9 10.3 10.4 10.3 10.8 8.9 11.3 10.3 12.7 10.3 11.5 11.2 12 12.5ZM11.5 7.1L12 8.5 10.8 7.6 9.6 8.5 10.1 7.1 8.9 6.2 10.4 6.2 10.8 4.8 11.3 6.2 12.7 6.2 11.5 7.1ZM11.5 3L12 4.4 10.8 3.6 9.6 4.4 10.1 3 8.9 2.2 10.4 2.2 10.8 0.8 11.3 2.2 12.7 2.2 11.5 3Z" fill="#0052B4"/></g></g></g></svg>