<svg xmlns="http://www.w3.org/2000/svg" width="29" height="29" viewBox="0 0 29 29" version="1.1"><title>spain</title><desc>Created with Sketch.</desc><g stroke="none" stroke-width="1" fill="none" fill-rule="evenodd"><g transform="translate(-922.000000, -61.000000)" fill-rule="nonzero"><g transform="translate(922.000000, 61.000000)"><path d="M0 14.5C0 16.3 0.3 18 0.9 19.5L14.5 20.8 28.1 19.5C28.7 18 29 16.3 29 14.5 29 12.7 28.7 11 28.1 9.5L14.5 8.2 0.9 9.5C0.3 11 0 12.7 0 14.5Z" fill="#FFDA44"/><g transform="translate(0.849609, 0.000000)" fill="#D80027"><path d="M27.2 9.5C25.2 3.9 19.9 0 13.7 0 7.4 0 2.1 3.9 0.1 9.5L27.2 9.5ZM0.1 19.5C2.1 25.1 7.4 29 13.7 29 19.9 29 25.2 25.1 27.2 19.5L0.1 19.5Z"/></g></g></g></g></svg>