<svg xmlns="http://www.w3.org/2000/svg" width="52" height="31" viewBox="0 0 52 31" version="1.1"><title>Page 1</title><desc>Created with Sketch.</desc><defs><polygon points="0 7.8 0 0.2 7.8 0.2 7.8 7.8 0 7.8"/></defs><g stroke="none" stroke-width="1" fill="none" fill-rule="evenodd"><g transform="translate(-213.000000, -162.000000)"><g transform="translate(213.000000, 162.000000)"><path d="M37.6 14.7C37.4 16.7 35.7 18.3 33.7 18.6 32.2 18.7 30.9 18.2 30 17.3 29.5 16.8 28.8 16.5 28.1 16.5L27.9 16.5C26.5 16.5 25.2 17.1 24.4 18.2 23.1 19.7 21.2 20.7 19.1 20.7 15.7 20.6 12.8 17.9 12.7 14.5 12.5 10.9 15.5 7.8 19.2 7.8 21.3 7.8 23.1 8.7 24.3 10.2 25 11.1 26.2 11.5 27.3 11.5L28.3 11.5C29 11.5 29.8 11.3 30.4 10.9 31.1 10.3 32.1 9.9 33.2 9.9 35.8 9.9 37.9 12.1 37.6 14.7M42.8 25.6C42.6 27 41.5 28.3 40.1 28.6 38.9 28.9 37.9 28.6 37 28 36.4 27.6 35.6 27.3 34.8 27.4L34.6 27.4C33.6 27.5 32.7 28 32.1 28.8 31.2 30 29.8 30.8 28.1 31 26.1 31.1 24.3 30.2 23.3 28.6 22.9 28.1 22.3 27.8 21.7 27.9 20.6 27.9 19.6 28.4 18.8 29.1 18.3 29.5 17.6 29.8 16.9 29.9 15.1 30.1 13.4 28.7 13.2 26.9 13 25 14.4 23.4 16.3 23.2 17.2 23.2 18 23.4 18.7 23.9 19.3 24.4 20.1 24.6 20.8 24.6 21.8 24.5 22.6 24 23.1 23.1 23.9 21.7 25.5 20.7 27.3 20.5 29 20.4 30.5 21 31.5 22.1 32.3 22.8 33.3 23.2 34.3 23.1L34.6 23.1C35.5 23 36.4 22.7 37.1 22.2 37.7 21.8 38.2 21.6 38.9 21.6 41.1 21.4 43.1 23.3 42.8 25.6M9.2 25.7C9.2 27 8.2 28.1 6.8 28.1 5.5 28.1 4.4 27 4.4 25.7 4.4 24.4 5.5 23.3 6.8 23.3 8.2 23.3 9.2 24.4 9.2 25.7M44.3 3.6C44.3 4.5 43.5 5.2 42.6 5.2 41.6 5.2 40.9 4.5 40.9 3.6 40.9 2.7 41.6 1.9 42.6 1.9 43.5 1.9 44.3 2.7 44.3 3.6" fill="#00E79F"/><g transform="translate(0.000000, 9.829191)"><mask fill="white"/><path d="M7.8 4C7.8 6.1 6 7.8 3.9 7.8 1.7 7.8 0 6.1 0 4 0 1.9 1.7 0.2 3.9 0.2 6 0.2 7.8 1.9 7.8 4" fill="#00E79F" mask="url(#mask-2)"/></g><path d="M49.2 13.6C49.2 15.8 47.3 17.6 45 17.6 42.7 17.6 40.9 15.8 40.9 13.6 40.9 11.3 42.7 9.5 45 9.5 47.3 9.5 49.2 11.3 49.2 13.6M51.6 25C51.6 26.7 50.2 28.1 48.4 28.1 46.7 28.1 45.3 26.7 45.3 25 45.3 23.3 46.7 21.9 48.4 21.9 50.2 21.9 51.6 23.3 51.6 25M38.9 4.3C38.7 5.2 37.9 6 37 6.1 36.3 6.3 35.6 6.1 35.1 5.7 34.6 5.4 34 5.2 33.4 5.2L32.9 5.2C32.1 5.2 31.3 5.6 30.8 6.2 29.9 7.2 28.6 7.8 27.2 7.6 25.5 7.4 24.1 6 23.9 4.3 23.6 2 25.4 0 27.7 0 28.9 0 30 0.5 30.7 1.3 31.3 2 32.1 2.4 33 2.4L33.3 2.4C33.9 2.4 34.6 2.2 35.1 1.9 35.5 1.6 36 1.4 36.5 1.4 38 1.4 39.2 2.8 38.9 4.3" fill="#00E79F"/></g></g></g></svg>