<?xml version="1.0" encoding="UTF-8"?>
<svg width="16px" height="16px" viewBox="0 0 16 16" version="1.1" xmlns="http://www.w3.org/2000/svg" xmlns:xlink="http://www.w3.org/1999/xlink">
    <!-- Generator: Sketch 45.2 (43514) - http://www.bohemiancoding.com/sketch -->
    <title>ic_download</title>
    <desc>Created with Sketch.</desc>
    <defs></defs>
    <g id="Symbols" stroke="none" stroke-width="1" fill="none" fill-rule="evenodd">
        <g id="Download-template" transform="translate(-16.000000, -8.000000)" stroke-width="0.5" stroke="#FFFFFF" fill="#FEFEFE" fill-rule="nonzero">
            <g id="Botão">
                <g id="Conteúdo-de-butão" transform="translate(17.000000, 8.000000)">
                    <g id="ic_download" transform="translate(0.000000, 1.000000)">
                        <path d="M13.4171429,9.39262295 C13.0942857,9.39262295 12.8342857,9.65368852 12.8342857,9.97786885 L12.8342857,12.8008197 L1.16571429,12.8008197 L1.16571429,9.97786885 C1.16571429,9.65368852 0.905714286,9.39262295 0.582857143,9.39262295 C0.26,9.39262295 0,9.65368852 0,9.97786885 L0,13.3860656 C0,13.7102459 0.26,13.9713115 0.582857143,13.9713115 L13.4171429,13.9713115 C13.74,13.9713115 14,13.7102459 14,13.3860656 L14,9.97786885 C14,9.65368852 13.74,9.39262295 13.4171429,9.39262295 Z" id="Shape"></path>
                        <path d="M6.57142857,10.0868852 C6.9,10.4196721 7.30285714,10.2360656 7.42571429,10.0868852 L10.7771429,6.46639344 C10.9971429,6.22827869 10.9828571,5.85819672 10.7457143,5.63729508 C10.5085714,5.41639344 10.14,5.4307377 9.92285714,5.66885246 L7.58285714,8.19631148 L7.58285714,0.588114754 C7.58285714,0.263934426 7.32285714,0.00286885246 7,0.00286885246 C6.67714286,0.00286885246 6.41714286,0.263934426 6.41714286,0.588114754 L6.41714286,8.19918033 L4.07714286,5.67172131 C3.85714286,5.43360656 3.48857143,5.42213115 3.25142857,5.64016393 C3.01428571,5.86106557 3.00285714,6.23114754 3.22,6.4692623 L6.57142857,10.0868852 L6.57142857,10.0868852 Z" id="Shape"></path>
                    </g>
                </g>
            </g>
        </g>
    </g>
</svg>