<svg xmlns="http://www.w3.org/2000/svg" width="25" height="14" viewBox="0 0 25 14" version="1.1"><title>Group 11</title><desc>Created with Sketch.</desc><g stroke="none" stroke-width="1" fill="none" fill-rule="evenodd"><g transform="translate(-1017.000000, -290.000000)" fill="#373737"><g transform="translate(1017.000000, 290.000000)"><path d="M23.5 7.6C22.2 9.2 20.6 10.5 18.8 11.5 18.3 11.7 17.7 11.9 17.2 12.1 18.6 10.9 19.4 9.1 19.4 7.1 19.4 5.1 18.6 3.3 17.2 2 17.7 2.2 18.3 2.4 18.8 2.7 20.6 3.6 22.2 4.9 23.5 6.5 23.7 6.9 23.7 7.3 23.5 7.6M12.6 12.9C9.4 12.9 6.8 10.3 6.8 7.1 6.8 3.9 9.4 1.2 12.6 1.2 15.9 1.2 18.5 3.9 18.5 7.1 18.5 10.3 15.9 12.9 12.6 12.9M6.5 11.5C4.7 10.5 3.1 9.2 1.8 7.6 1.6 7.3 1.6 6.9 1.8 6.5 3.1 4.9 4.7 3.6 6.5 2.7 7 2.4 7.6 2.2 8.1 2 6.7 3.3 5.8 5.1 5.8 7.1 5.8 9.1 6.7 10.9 8.1 12.1 7.6 11.9 7 11.7 6.5 11.5M24.3 5.9C22.9 4.2 21.2 2.8 19.2 1.8 17.2 0.8 15.1 0.3 12.8 0.3 12.8 0.3 12.5 0.3 12.5 0.3 10.2 0.3 8.1 0.8 6.1 1.8 4.1 2.8 2.4 4.2 1 5.9 0.5 6.6 0.5 7.5 1 8.2 2.4 9.9 4.1 11.4 6.1 12.3 8.1 13.3 10.2 13.8 12.5 13.9 12.5 13.9 12.8 13.9 12.8 13.9 15.1 13.8 17.2 13.3 19.2 12.3 21.2 11.4 22.9 9.9 24.3 8.2 24.8 7.5 24.8 6.6 24.3 5.9M12.6 8.6C11.8 8.6 11.1 7.9 11.1 7.1 11.1 6.2 11.8 5.5 12.6 5.5 13.5 5.5 14.2 6.2 14.2 7.1 14.2 7.9 13.5 8.6 12.6 8.6M12.6 4.6C11.3 4.6 10.1 5.7 10.1 7.1 10.1 8.4 11.3 9.6 12.6 9.6 14 9.6 15.1 8.4 15.1 7.1 15.1 5.7 14 4.6 12.6 4.6"/></g></g></g></svg>