<?xml version="1.0" encoding="UTF-8"?>
<svg width="25px" height="14px" viewBox="0 0 25 14" version="1.1" xmlns="http://www.w3.org/2000/svg" xmlns:xlink="http://www.w3.org/1999/xlink">
    <!-- Generator: Sketch 45.2 (43514) - http://www.bohemiancoding.com/sketch -->
    <title>ic_ver_mais</title>
    <desc>Created with Sketch.</desc>
    <defs></defs>
    <g id="Symbols" stroke="none" stroke-width="1" fill="none" fill-rule="evenodd">
        <g id="ícone---ver-mais" transform="translate(-11.000000, 0.000000)" fill="@baseColor">
            <g id="ic_ver_mais" transform="translate(11.000000, 0.000000)">
                <path d="M23.4824,7.5971 C22.2244,9.2101 20.5944,10.5441 18.7704,11.4551 C18.2534,11.7141 17.7244,11.9361 17.1854,12.1251 C18.5714,10.8791 19.4444,9.0731 19.4444,7.0671 C19.4444,5.0601 18.5704,3.2541 17.1834,2.0081 C17.7224,2.1971 18.2524,2.4211 18.7704,2.6801 C20.5944,3.5911 22.2244,4.9251 23.4824,6.5381 C23.7254,6.8501 23.7254,7.2851 23.4824,7.5971 M12.6404,12.8951 C9.4274,12.8951 6.8134,10.2811 6.8134,7.0671 C6.8134,3.8541 9.4274,1.2401 12.6404,1.2401 C15.8534,1.2401 18.4674,3.8541 18.4674,7.0681 C18.4674,10.2811 15.8534,12.8951 12.6404,12.8951 M6.5114,11.4551 C4.6864,10.5441 3.0574,9.2101 1.7984,7.5971 C1.5554,7.2851 1.5554,6.8501 1.7984,6.5381 C3.0574,4.9251 4.6864,3.5911 6.5114,2.6801 C7.0294,2.4211 7.5584,2.1971 8.0974,2.0081 C6.7114,3.2541 5.8374,5.0611 5.8374,7.0681 C5.8374,9.0741 6.7114,10.8811 8.0974,12.1271 C7.5584,11.9381 7.0294,11.7141 6.5114,11.4551 M24.2524,5.9381 C22.9054,4.2101 21.1604,2.7821 19.2064,1.8061 C17.2114,0.8101 15.0654,0.2941 12.8264,0.2671 C12.7644,0.2651 12.5164,0.2651 12.4554,0.2671 C10.2154,0.2941 8.0694,0.8101 6.0744,1.8061 C4.1214,2.7821 2.3764,4.2101 1.0294,5.9381 C0.5104,6.6031 0.5104,7.5321 1.0294,8.1981 C2.3764,9.9251 4.1214,11.3531 6.0744,12.3291 C8.0694,13.3251 10.2154,13.8411 12.4554,13.8681 C12.5164,13.8701 12.7644,13.8701 12.8264,13.8681 C15.0654,13.8411 17.2114,13.3251 19.2064,12.3291 C21.1604,11.3531 22.9054,9.9251 24.2524,8.1981 C24.7714,7.5321 24.7714,6.6031 24.2524,5.9381" id="Fill-7"></path>
                <path d="M12.6406,8.5849 C11.8046,8.5849 11.1236,7.9039 11.1236,7.0679 C11.1236,6.2309 11.8036,5.5499 12.6406,5.5499 C13.4766,5.5499 14.1576,6.2309 14.1576,7.0679 C14.1586,7.9039 13.4766,8.5849 12.6406,8.5849 M12.6406,4.5739 C11.2656,4.5739 10.1466,5.6929 10.1466,7.0679 C10.1466,8.4429 11.2656,9.5609 12.6406,9.5609 C14.0156,9.5609 15.1346,8.4429 15.1346,7.0679 C15.1346,5.6929 14.0156,4.5739 12.6406,4.5739" id="Fill-9"></path>
            </g>
        </g>
    </g>
</svg>