<svg xmlns="http://www.w3.org/2000/svg" width="33" height="29" viewBox="0 0 33 29" version="1.1"><g stroke="none" stroke-width="1" fill="none" fill-rule="evenodd"><g transform="translate(-422.000000, -237.000000)" stroke="#373737" stroke-width="0.7" fill="#373737" fill-rule="nonzero"><g transform="translate(407.000000, 210.000000)"><path d="M45.4 32.1L30.5 32.1 30.5 29.6C30.5 28.7 29.8 28 28.9 28L17.6 28C16.7 28 16 28.7 16 29.6L16 36.8 16 37.9 16 53.9C16 54.8 16.7 55.5 17.6 55.5L45.4 55.5C46.3 55.5 47 54.8 47 53.9L47 37.9 47 36.8 47 33.7C47 32.9 46.3 32.1 45.4 32.1ZM46 53.9C46 54.2 45.7 54.4 45.4 54.4L17.6 54.4C17.3 54.4 17 54.2 17 53.9L17 37.9 46 37.9 46 53.9ZM17 36.8L17 29.6C17 29.3 17.3 29 17.6 29L28.9 29C29.2 29 29.4 29.3 29.4 29.6L29.4 33.2 45.4 33.2C45.7 33.2 46 33.4 46 33.7L46 36.8 17 36.8Z"/></g></g></g></svg>