<?xml version="1.0" encoding="UTF-8"?>
<svg width="25px" height="22px" viewBox="0 0 25 22" version="1.1" xmlns="http://www.w3.org/2000/svg" xmlns:xlink="http://www.w3.org/1999/xlink">
    <!-- Generator: Sketch 46 (44423) - http://www.bohemiancoding.com/sketch -->
    <title>ic_vivi</title>
    <desc>Created with Sketch.</desc>
    <defs></defs>
    <g id="Page-1" stroke="none" stroke-width="1" fill="none" fill-rule="evenodd">
        <g id="ic_vivi" transform="translate(0.000000, -1.000000)">
            <rect id="Rectangle" x="0" y="0" width="24" height="24"></rect>
            <path d="M23.6325228,18.6365128 C23.6066794,18.6204817 21.0650372,16.9417916 21.0650372,10.8400321 C21.0650372,5.9383183 17.3862855,2.05572735 12.6910268,2.00076342 L12.5003848,2 L12.3108666,2.00076342 C7.64969112,2.05496393 3.89078743,6.02305432 3.93123799,10.8469025 C3.93133165,10.8592122 3.93774567,10.8694225 3.93840112,10.881589 C3.92636899,16.947851 1.39778896,18.6205294 1.38098141,18.6311691 C1.17723055,18.7525478 1.03939908,18.9617161 1.00718846,19.1998932 C0.974977838,19.4380702 1.05213354,19.677774 1.21618288,19.8502996 C2.12744363,20.8091149 3.9053946,22 5.93204143,22 C7.03946856,21.9992843 8.22096135,21.6363411 9.37511261,20.6935093 C10.2984055,21.2099889 11.3620112,21.5090461 12.5041302,21.5144852 C13.6357153,21.5090461 14.6953884,21.2065536 15.6180258,20.6842531 C16.7760629,21.634194 17.9613948,21.9999999 19.0724737,21.9999999 C21.098746,21.9999999 22.877446,20.8091148 23.7883322,19.8502996 C23.9497598,19.6808274 24.022421,19.4426504 23.9939558,19.2082903 C23.9654906,18.9731669 23.8295319,18.7617085 23.6325228,18.6365128 Z M12.2253112,3.42933487 L12.4011286,3.42857143 L12.5780977,3.42933487 C16.519402,3.47437604 19.6069553,6.67000846 19.6069553,10.7053914 C19.6069553,10.9121323 19.6136732,11.10809 19.6190476,11.3061948 C14.348508,10.6837774 11.0353768,8.70115503 9.83104668,7.85252987 C9.47672469,7.60289497 8.98574115,7.68686996 8.73506694,8.03880176 C8.53256979,8.32264695 8.5570902,8.68932212 8.75637232,8.95389129 C8.17071415,9.73514552 6.82060539,11.2882546 5.18181818,11.5663265 C5.19275877,11.2877297 5.19914081,11.001642 5.19914081,10.7053914 C5.19914081,10.6926996 5.19247087,10.6822028 5.19189507,10.6696543 C5.17342075,6.71924839 8.32162732,3.47351723 12.2253112,3.42933487 Z M2.98249158,19.5981536 C3.87414315,18.6015854 5.18616698,16.5270317 5.63225194,12.6882524 C5.88341771,12.6657887 6.12929586,12.6267785 6.36833105,12.5668934 L6.4479058,14.9160528 C6.51721615,16.9644172 7.35298398,18.7880892 8.66666667,20.0918081 C6.33681218,21.736866 4.08046716,20.4619667 2.98249158,19.5981536 Z M12.3137625,19.7777778 C9.65606769,19.7656215 7.49944478,17.6755073 7.40485275,15.0186082 L7.31144781,12.408767 C8.59936232,11.6519933 9.55796163,10.5179012 10.0445029,9.85714286 C11.5366071,10.7355265 14.0198384,11.9046628 17.4285714,12.5591055 L17.3430967,14.9563074 C17.2469851,17.6481557 15.0618707,19.7663813 12.3137625,19.7777778 Z M16.6779461,20.1090029 C17.9700502,18.8558068 18.7990045,17.100811 18.8677544,15.129001 L18.951461,12.7142857 C19.1759632,12.7447752 19.4069043,12.7704177 19.6377947,12.7961122 C20.0409656,16.6307517 21.3669883,18.6848051 22.2614478,19.6554132 C21.1873055,20.484623 18.9752396,21.7082678 16.6779461,20.1090029 Z" id="Shape" stroke="#DADBDC" stroke-width="0.2" fill="#65377F" fill-rule="nonzero"></path>
        </g>
    </g>
</svg>