<svg xmlns="http://www.w3.org/2000/svg" xmlns:xlink="http://www.w3.org/1999/xlink" width="118" height="66" viewBox="0 0 118 66">
    <defs>
        <path id="b" d="M10.56 45.262l-7.004 3.705 2.187-8.16C2.153 36.499 0 30.997 0 25 0 11.193 11.417 0 25.5 0S51 11.193 51 25 39.583 50 25.5 50c-5.58 0-10.742-1.757-14.94-4.738z"/>
        <filter id="a" width="151%" height="152%" x="-25.5%" y="-22%" filterUnits="objectBoundingBox">
            <feOffset dy="2" in="SourceAlpha" result="shadowOffsetOuter1"/>
            <feGaussianBlur in="shadowOffsetOuter1" result="shadowBlurOuter1" stdDeviation="4"/>
            <feColorMatrix in="shadowBlurOuter1" values="0 0 0 0 0 0 0 0 0 0 0 0 0 0 0 0 0 0 0.204795063 0"/>
        </filter>
    </defs>
    <g fill="none" fill-rule="evenodd">
        <g transform="translate(8 6)">
            <use fill="#000" filter="url(#a)" xlink:href="#b"/>
            <use fill="#373737" xlink:href="#b"/>
        </g>
        <path fill="#373737" d="M33 6h60c13.807 0 25 11.193 25 25s-11.193 25-25 25H33V6z"/>
        <text fill="#00E79F" font-family="Raleway-Bold, Raleway" font-size="12" font-weight="bold" transform="translate(8 6)">
            <tspan x="53" y="30">TRY IT</tspan>
        </text>
        <g fill="#FFF" fill-rule="nonzero">
            <path d="M40.618 30.705c-.128 1.386-1.214 2.494-2.492 2.701-.96.07-1.79-.277-2.365-.9a1.682 1.682 0 0 0-1.214-.554h-.128c-.895 0-1.726.416-2.237 1.177-.83 1.04-2.045 1.732-3.387 1.732-2.173-.07-4.027-1.94-4.09-4.294-.128-2.494 1.789-4.64 4.154-4.64 1.342 0 2.492.623 3.259 1.662.447.623 1.214.9 1.917.9h.64c.447 0 .958-.139 1.342-.416a2.645 2.645 0 0 1 1.789-.692c1.662 0 3.004 1.524 2.812 3.324m3.323 7.55c-.127.97-.83 1.87-1.725 2.078-.767.207-1.406 0-1.981-.416-.384-.277-.895-.485-1.406-.416H38.7a2.23 2.23 0 0 0-1.598.97c-.575.831-1.47 1.385-2.556 1.524a3.28 3.28 0 0 1-3.068-1.662c-.256-.347-.64-.555-1.023-.485-.703 0-1.342.346-1.853.83-.32.278-.767.486-1.214.555-1.15.138-2.237-.831-2.365-2.078-.128-1.316.767-2.424 1.981-2.563.575 0 1.087.139 1.534.485.384.347.895.485 1.342.485.64-.07 1.15-.415 1.47-1.039.511-.97 1.534-1.662 2.684-1.8 1.087-.07 2.045.346 2.685 1.108.51.484 1.15.761 1.789.692h.192c.575-.07 1.15-.277 1.597-.623.384-.277.704-.416 1.15-.416 1.407-.138 2.685 1.178 2.493 2.77m-21.473.07c0 .9-.64 1.662-1.534 1.662-.831 0-1.534-.762-1.534-1.662 0-.9.703-1.662 1.534-1.662.895 0 1.534.762 1.534 1.662M44.9 23.017c0 .624-.511 1.109-1.086 1.109-.64 0-1.087-.485-1.087-1.109 0-.623.447-1.177 1.087-1.177.575 0 1.086.554 1.086 1.177M21.076 30.24c0 1.38-1.171 2.496-2.538 2.496-1.432 0-2.538-1.117-2.538-2.496 0-1.38 1.106-2.496 2.538-2.496 1.367 0 2.538 1.117 2.538 2.496M48.455 29.944c0 1.447-1.223 2.63-2.703 2.63a2.624 2.624 0 0 1-2.639-2.63c0-1.513 1.159-2.696 2.639-2.696a2.693 2.693 0 0 1 2.703 2.696M50 37.441a2.04 2.04 0 0 1-2.06 2.039c-1.094 0-1.995-.92-1.995-2.039 0-1.118.901-2.038 1.995-2.038 1.159 0 2.06.92 2.06 2.038m-8.174-13.613c-.129.592-.644 1.118-1.223 1.184-.45.131-.901 0-1.223-.263a2.136 2.136 0 0 0-1.094-.33h-.322c-.515 0-1.03.264-1.352.658-.58.658-1.416 1.053-2.317.921-1.094-.131-1.995-1.052-2.124-2.17-.193-1.513.966-2.828 2.446-2.828.772 0 1.48.329 1.93.855.387.46.902.723 1.481.723h.193a2.37 2.37 0 0 0 1.159-.328c.257-.198.58-.33.901-.33.965 0 1.738.921 1.545 1.908"/>
        </g>
    </g>
</svg>
