<svg xmlns="http://www.w3.org/2000/svg" width="93" height="56" viewBox="0 0 93 56">
    <g fill="#00E79F" fill-rule="nonzero">
        <path d="M37 50.707l18.256-18.255c1.958 1.96 5.463 5.482 5.463 5.482v.006l14.227-14.222c-.003 0-.006-.002-.01-.004 0 0-3.522-3.501-5.484-5.462L87.715 0c6.944 6.944 7.04 18.121.32 25.204l-.003.033-.304.305c-.006.003-.01.009-.014.014-.01.009-.014.012-.02.02l-25.136 25.13c-7.059 7.058-18.501 7.058-25.558 0zM4.122 43.254L.746 37.122l6.132-3.376 3.376 6.132zM20.018 48.51l-9.167-16.642 6.13-3.378 9.168 16.642zM30.02 48.51l-9.17-16.641 6.13-3.379 9.17 16.641zM37.123 43.254l-3.377-6.13 6.13-3.378 3.378 6.13z"/>
    </g>
</svg>
