<svg xmlns="http://www.w3.org/2000/svg" width="71" height="28" viewBox="0 0 71 28" version="1.1"><title>Marca Vivo - Branca@2x</title><desc>Created with Sketch.</desc><g stroke="none" stroke-width="1" fill="none" fill-rule="evenodd"><g transform="translate(-62.000000, -23.000000)" fill="#FFFFFF"><g transform="translate(62.000000, 23.000000)"><path d="M9.5 27.1L11.2 27.1C11.5 27.1 12.6 26.9 13.2 25.8L20.4 13.1C21.1 11.7 20.3 10.6 19.5 10.3L17.6 9.5C16.6 9 15.3 9.5 14.9 10.6L10.4 19.6 10.3 19.6 5.8 10.6C5.3 9.5 4.1 9 3.1 9.5L1.2 10.3C0.4 10.6-0.5 11.7 0.3 13.1L7.5 25.8C8.1 26.9 9.2 27.1 9.5 27.1M41 27.1L42.7 27.1C43 27.1 44.1 26.9 44.8 25.8L51.9 13.1C52.7 11.7 51.8 10.6 51 10.3L49.1 9.5C48.1 9 46.9 9.5 46.4 10.6L41.9 19.6 41.8 19.6 37.3 10.6C36.9 9.5 35.6 9 34.6 9.5L32.7 10.3C31.9 10.6 31.1 11.7 31.8 13.1L39 25.8C39.6 26.9 40.7 27.1 41 27.1M62 21.8C60.1 21.8 58.5 20.3 58.5 18.3 58.5 16.3 60.1 14.8 62 14.8 64 14.8 65.6 16.3 65.6 18.3 65.6 20.3 64 21.8 62 21.8M62 9.3C57.1 9.3 53.1 13.4 53.1 18.3 53.1 23.2 57.1 27.3 62 27.3 67 27.3 71 23.2 71 18.3 71 13.4 67 9.3 62 9.3M29.6 4.3C29.6 6.2 28 7.8 26.1 7.8 24.2 7.8 22.6 6.2 22.6 4.3 22.6 2.3 24.2 0.7 26.1 0.7 28 0.7 29.6 2.3 29.6 4.3M23 11.7C23 10.5 24 9.5 25.2 9.5L27 9.5C28.2 9.5 29.2 10.5 29.2 11.7L29.2 24.9C29.2 26.1 28.2 27.1 27 27.1L25.2 27.1C24 27.1 23 26.1 23 24.9L23 11.7Z"/></g></g></g></svg>