<svg xmlns="http://www.w3.org/2000/svg" width="30" height="30" viewBox="0 0 30 30" version="1.1"><g stroke="none" stroke-width="1" fill="none" fill-rule="evenodd"><g transform="translate(-796.000000, -9.000000)" fill="#FFFFFF"><g transform="translate(796.000000, 9.000000)"><path d="M26.8 9.6L20 2.8C20.8 2.1 21.9 1.7 23 1.7 24.3 1.7 25.5 2.2 26.4 3.1 27.4 4 27.9 5.2 27.9 6.5 27.9 7.7 27.5 8.7 26.8 9.6L26.8 9.6ZM10.1 26.2L7.4 23.5 22.8 8 25.6 10.8 10.1 26.2ZM18.7 4L21.6 6.8 6.1 22.3 3.3 19.4 18.7 4ZM27.6 1.9C25.1-0.6 21-0.6 18.4 1.9L1.5 18.8C1.4 19 1.3 19.1 1.3 19.3L0 28.6C0 28.9 0.1 29.1 0.2 29.3 0.4 29.5 0.6 29.6 0.8 29.6 0.9 29.6 0.9 29.6 1 29.5L6.6 28.8C7 28.7 7.3 28.3 7.3 27.8 7.2 27.4 6.8 27 6.3 27.1L1.8 27.7 2.7 21.2 9.5 28C9.7 28.2 9.9 28.3 10.1 28.3 10.3 28.3 10.6 28.2 10.7 28L27.6 11.1C28.9 9.9 29.6 8.3 29.6 6.5 29.6 4.8 28.9 3.1 27.6 1.9L27.6 1.9Z"/></g></g></g></svg>