<svg xmlns="http://www.w3.org/2000/svg" width="21" height="21" viewBox="0 0 21 21" version="1.1"><title>Fill 1@2x</title><desc>Created with Sketch.</desc><g stroke="none" stroke-width="1" fill="none" fill-rule="evenodd"><g transform="translate(-883.000000, -288.000000)" fill="#000000"><path d="M901.6 294.7L896.9 289.9C897.5 289.5 898.2 289.2 899 289.2 899.9 289.2 900.8 289.5 901.4 290.2 902 290.8 902.4 291.6 902.4 292.5 902.4 293.3 902.1 294.1 901.6 294.7L901.6 294.7ZM890 306.3L888.1 304.3 898.9 293.6 900.8 295.5 890 306.3ZM896 290.8L898 292.8 887.3 303.5 885.3 301.5 896 290.8ZM902.2 289.3C900.5 287.6 897.6 287.6 895.8 289.3L884 301.1C884 301.2 883.9 301.3 883.9 301.4L883 307.9C883 308.1 883 308.2 883.2 308.4 883.3 308.5 883.4 308.6 883.6 308.6 883.6 308.6 883.6 308.6 883.7 308.5L887.6 308C887.9 308 888.1 307.7 888.1 307.4 888 307 887.7 306.8 887.4 306.8L884.3 307.3 884.9 302.8 889.6 307.5C889.7 307.6 889.9 307.7 890 307.7 890.2 307.7 890.3 307.6 890.5 307.5L902.2 295.7C903.1 294.9 903.6 293.7 903.6 292.5 903.6 291.3 903.1 290.2 902.2 289.3L902.2 289.3Z"/></g></g></svg>