<svg xmlns="http://www.w3.org/2000/svg" width="30" height="30" viewBox="0 0 30 30" version="1.1"><title>brazil</title><desc>Created with Sketch.</desc><g stroke="none" stroke-width="1" fill="none" fill-rule="evenodd"><g transform="translate(-922.000000, -22.000000)" fill-rule="nonzero"><g transform="translate(922.000000, 22.000000)"><circle fill="#6DA544" cx="15" cy="15" r="15"/><polygon fill="#FFDA44" points="15 5.9 27.4 15 15 24.1 2.6 15"/><circle fill="#F0F0F0" cx="15" cy="15" r="5.2"/><g transform="translate(9.726562, 9.726562)" fill="#0052B4"><path d="M2.7 4.9C1.8 4.9 0.9 5.1 0.1 5.3 0.1 8.2 2.4 10.5 5.3 10.5 7 10.5 8.6 9.6 9.5 8.3 7.9 6.2 5.4 4.9 2.7 4.9ZM10.4 6.3C10.5 5.9 10.5 5.6 10.5 5.3 10.5 2.4 8.2 0.1 5.3 0.1 3.1 0.1 1.3 1.4 0.5 3.2 1.2 3.1 1.9 3 2.7 3 5.7 3 8.4 4.3 10.4 6.3Z"/></g></g></g></g></svg>