<svg xmlns="http://www.w3.org/2000/svg" width="23" height="23" viewBox="0 0 23 23" version="1.1"><title>settings</title><desc>Created with Sketch.</desc><g stroke="none" stroke-width="1" fill="none" fill-rule="evenodd"><g transform="translate(-789.000000, -25.000000)" fill-rule="nonzero" fill="#FFFFFF"><g transform="translate(789.000000, 25.000000)"><path d="M21.8 9.1L20.2 8.8C20 8.3 19.8 7.7 19.5 7.2L20.5 5.9C20.9 5.3 20.8 4.6 20.3 4.1L18.9 2.7C18.6 2.4 18.3 2.2 17.9 2.2 17.6 2.2 17.3 2.3 17.1 2.5L15.8 3.4C15.2 3.2 14.7 2.9 14.1 2.8L13.9 1.2C13.7 0.5 13.2 0 12.5 0L10.4 0C9.7 0 9.2 0.5 9 1.2L8.8 2.8C8.2 3 7.7 3.2 7.2 3.5L5.9 2.5C5.6 2.4 5.3 2.3 5.1 2.3 4.7 2.3 4.3 2.4 4 2.7L2.6 4.1C2.1 4.6 2.1 5.4 2.5 5.9L3.4 7.3C3.2 7.8 2.9 8.3 2.8 8.9L1.2 9.1C0.5 9.2 0 9.8 0 10.5L0 12.6C0 13.2 0.5 13.8 1.2 14L2.8 14.2C3 14.8 3.2 15.3 3.5 15.8L2.5 17.1C2.1 17.7 2.2 18.4 2.7 18.9L4.1 20.4C4.4 20.6 4.7 20.8 5.1 20.8 5.4 20.8 5.7 20.7 5.9 20.5L7.3 19.6C7.8 19.8 8.3 20 8.8 20.2L9.1 21.8C9.2 22.5 9.8 23 10.5 23L12.5 23C13.2 23 13.8 22.5 13.9 21.8L14.2 20.2C14.7 20 15.2 19.8 15.7 19.5L17.1 20.5C17.3 20.7 17.6 20.8 17.9 20.8L17.9 20.8C18.3 20.8 18.6 20.6 18.9 20.3L20.3 18.9C20.8 18.4 20.9 17.6 20.5 17.1L19.5 15.7C19.8 15.2 20 14.7 20.2 14.2L21.8 13.9C22.5 13.8 23 13.2 23 12.5L23 10.5C23 9.8 22.5 9.2 21.8 9.1ZM21.7 12.5C21.7 12.6 21.7 12.6 21.6 12.6L19.6 13C19.3 13 19.1 13.2 19.1 13.4 18.9 14.1 18.6 14.8 18.2 15.5 18.1 15.7 18.1 15.9 18.3 16.2L19.4 17.8C19.5 17.9 19.5 17.9 19.4 18L18 19.4C18 19.5 17.9 19.5 17.9 19.5 17.9 19.5 17.8 19.5 17.8 19.4L16.2 18.3C16 18.1 15.7 18.1 15.5 18.2 14.8 18.6 14.2 18.9 13.4 19.1 13.2 19.1 13 19.3 13 19.6L12.6 21.6C12.6 21.7 12.6 21.7 12.5 21.7L10.5 21.7C10.4 21.7 10.4 21.7 10.4 21.6L10 19.6C10 19.3 9.8 19.1 9.5 19.1 8.9 18.9 8.2 18.6 7.6 18.3 7.5 18.2 7.4 18.2 7.3 18.2 7.1 18.2 7 18.2 6.9 18.3L5.2 19.5C5.2 19.5 5.1 19.5 5.1 19.5 5.1 19.5 5.1 19.5 5 19.5L3.6 18C3.6 18 3.6 17.9 3.6 17.9L4.8 16.2C4.9 16 4.9 15.7 4.8 15.5 4.4 14.9 4.1 14.2 4 13.5 3.9 13.3 3.7 13.1 3.4 13L1.4 12.7C1.3 12.7 1.3 12.6 1.3 12.6L1.3 10.5C1.3 10.5 1.3 10.4 1.4 10.4L3.4 10.1C3.7 10 3.9 9.8 3.9 9.6 4.1 8.9 4.4 8.2 4.7 7.6 4.9 7.4 4.9 7.1 4.7 6.9L3.5 5.2C3.5 5.1 3.5 5.1 3.5 5L5 3.6C5 3.6 5 3.6 5.1 3.6 5.1 3.6 5.1 3.6 5.1 3.6L6.8 4.8C7 4.9 7.3 4.9 7.5 4.8 8.1 4.4 8.8 4.1 9.5 3.9 9.7 3.9 9.9 3.7 10 3.4L10.3 1.4C10.3 1.3 10.4 1.3 10.4 1.3L12.5 1.3C12.5 1.3 12.6 1.3 12.6 1.4L12.9 3.4C13 3.7 13.2 3.9 13.4 3.9 14.1 4.1 14.8 4.4 15.5 4.8 15.7 4.9 16 4.9 16.2 4.7L17.8 3.5C17.9 3.5 17.9 3.5 17.9 3.5 17.9 3.5 18 3.5 18 3.6L19.4 5C19.5 5 19.5 5.1 19.4 5.2L18.3 6.8C18.1 7 18.1 7.3 18.2 7.5 18.6 8.2 18.9 8.8 19.1 9.5 19.1 9.8 19.3 10 19.6 10L21.6 10.4C21.7 10.4 21.7 10.4 21.7 10.5L21.7 12.5 21.7 12.5 21.7 12.5ZM11.5 6.5C8.8 6.5 6.5 8.8 6.5 11.5 6.5 14.2 8.8 16.5 11.5 16.5 14.2 16.5 16.5 14.2 16.5 11.5 16.5 8.8 14.2 6.5 11.5 6.5ZM11.5 15.2C9.5 15.2 7.8 13.5 7.8 11.5 7.8 9.5 9.5 7.8 11.5 7.8 13.5 7.8 15.2 9.5 15.2 11.5 15.2 13.5 13.5 15.2 11.5 15.2Z"/></g></g></g></svg>