<svg xmlns="http://www.w3.org/2000/svg" width="32" height="32" viewBox="0 0 32 32" version="1.1"><title>Status</title><desc>Created with Sketch.</desc><g stroke="none" stroke-width="1" fill="none" fill-rule="evenodd"><g transform="translate(-250.000000, -528.000000)" fill-rule="nonzero" stroke="#373737" fill="#373737"><g transform="translate(251.000000, 528.000000)"><g transform="translate(0.000000, 1.000000)"><path d="M25.6 4.4C22.7 1.6 19 0 15 0 11 0 7.2 1.6 4.4 4.4 -1.1 9.9-1.5 18.6 3.4 24.5 2.7 25.9 1.9 26.8 1 27.2 0.5 27.5 0.2 28.1 0.3 28.7 0.4 29.3 0.8 29.8 1.4 29.9 1.8 29.9 2.1 29.9 2.5 29.9L2.5 29.9C4.3 29.9 6.3 29.3 7.9 28.2 10.1 29.4 12.5 30 15 30 19 30 22.7 28.4 25.6 25.6 28.4 22.8 30 19 30 15 30 11 28.4 7.2 25.6 4.4ZM24.4 24.4C21.9 26.9 18.5 28.3 15 28.3 12.6 28.3 10.3 27.6 8.3 26.4 8.1 26.4 8 26.3 7.8 26.3 7.6 26.3 7.5 26.4 7.3 26.5 5.4 28 3.5 28.2 2.6 28.2 3.6 27.5 4.5 26.3 5.2 24.7 5.3 24.4 5.3 24 5 23.8 0.4 18.5 0.6 10.5 5.6 5.6 8.1 3.1 11.4 1.7 15 1.7 18.5 1.7 21.9 3.1 24.4 5.6 29.6 10.8 29.6 19.2 24.4 24.4ZM21.3 9L8.7 9C8.2 9 7.9 9.4 7.9 9.9 7.9 10.4 8.2 10.7 8.7 10.7L21.3 10.7C21.7 10.7 22.1 10.4 22.1 9.9 22.1 9.4 21.7 9 21.3 9ZM21.3 14.1L8.7 14.1C8.2 14.1 7.9 14.5 7.9 15 7.9 15.5 8.2 15.8 8.7 15.8L21.3 15.8C21.7 15.8 22.1 15.5 22.1 15 22.1 14.5 21.7 14.1 21.3 14.1ZM21.3 19.2L8.7 19.2C8.2 19.2 7.9 19.6 7.9 20.1 7.9 20.6 8.2 20.9 8.7 20.9L21.3 20.9C21.7 20.9 22.1 20.6 22.1 20.1 22.1 19.6 21.7 19.2 21.3 19.2Z"/></g></g></g></g></svg>