<svg xmlns="http://www.w3.org/2000/svg" width="28" height="26" viewBox="0 0 28 26" version="1.1"><title>sincronizao</title><desc>Created with Sketch.</desc><g stroke="none" stroke-width="1" fill="none" fill-rule="evenodd"><g transform="translate(-571.000000, -920.000000)" fill-rule="nonzero" stroke="#7C7D7D" fill="#7C7D7D"><g transform="translate(572.000000, 921.000000)"><path d="M8.2 16.8C7.9 16.5 7.5 16.6 7.3 16.9 6.2 18.4 4.4 19.3 2.6 19.3L0.7 19.3C0.3 19.3 0 19.6 0 20 0 20.4 0.3 20.7 0.7 20.7L2.6 20.7C3.7 20.7 4.8 20.4 5.9 19.9 6.8 19.4 7.7 18.6 8.4 17.7 8.6 17.4 8.5 17 8.2 16.8ZM14.1 7.1C14.3 7.2 14.4 7.3 14.6 7.3 14.8 7.3 15 7.2 15.1 7 16.2 5.5 17.9 4.7 19.8 4.7L23.7 4.7 21.6 6.8C21.3 7.1 21.3 7.5 21.6 7.8 21.7 7.9 21.9 8 22.1 8 22.2 8 22.4 7.9 22.5 7.8L25.8 4.5C26.1 4.2 26.1 3.8 25.8 3.5L22.5 0.2C22.3-0.1 21.8-0.1 21.6 0.2 21.3 0.5 21.3 0.9 21.6 1.2L23.7 3.3 19.7 3.3C17.5 3.3 15.4 4.3 14 6.2 13.8 6.5 13.8 6.9 14.1 7.1ZM20.5 16.2C20.3 15.9 19.9 15.9 19.6 16.2 19.3 16.5 19.3 16.9 19.6 17.2L21.7 19.3 17.8 19.3C14.5 19.3 11.9 16.6 11.9 13.3L11.9 10.7C11.9 6.6 8.6 3.3 4.6 3.3L2.7 3.3C2.4 3.3 2.1 3.6 2.1 4 2.1 4.4 2.4 4.7 2.7 4.7L4.6 4.7C7.9 4.7 10.5 7.4 10.5 10.7L10.5 13.3C10.5 17.4 13.8 20.7 17.8 20.7L21.7 20.7 19.6 22.8C19.3 23.1 19.3 23.5 19.6 23.8 19.7 23.9 19.9 24 20.1 24 20.2 24 20.4 23.9 20.5 23.8L23.8 20.5C24.1 20.2 24.1 19.8 23.8 19.5L20.5 16.2Z"/></g></g></g></svg>