<?xml version="1.0" encoding="UTF-8"?>
<svg width="21px" height="24px" viewBox="0 0 21 24" version="1.1" xmlns="http://www.w3.org/2000/svg" xmlns:xlink="http://www.w3.org/1999/xlink">
    <!-- Generator: Sketch 42 (36781) - http://www.bohemiancoding.com/sketch -->
    <title>Group 2@2x</title>
    <desc>Created with Sketch.</desc>
    <defs></defs>
    <g id="Page-1" stroke="none" stroke-width="1" fill="none" fill-rule="evenodd">
        <g id="Projetos" transform="translate(-883.000000, -253.000000)" fill="#000000">
            <g id="Group-2" transform="translate(883.000000, 253.000000)">
                <path d="M17.3771111,20.1336 C17.3771111,21.344 16.4181111,22.3312 15.2413333,22.3312 L5.20333333,22.3312 C4.02655556,22.3312 3.06755556,21.344 3.06755556,20.1336 L3.06755556,4.7152 L17.3817778,4.7152 L17.3817778,20.1336 L17.3771111,20.1336 Z M6.69666667,2.6 C6.69666667,1.8904 7.259,1.312 7.94888889,1.312 L12.4957778,1.312 C13.1848889,1.312 13.748,1.8904 13.748,2.6 L13.748,3.4024 L6.69666667,3.4024 L6.69666667,2.6 Z M19.8061111,3.4024 L15.0235556,3.4024 L15.0235556,2.6 C15.0235556,1.1664 13.8895556,0 12.4957778,0 L7.94888889,0 C6.55511111,0 5.42033333,1.1664 5.42033333,2.6 L5.42033333,3.4024 L0.638555556,3.4024 C0.283111111,3.4024 0,3.6936 0,4.0584 C0,4.4232 0.283111111,4.7152 0.638555556,4.7152 L1.79122222,4.7152 L1.79122222,20.1336 C1.79122222,22.068 3.32266667,23.6432 5.20333333,23.6432 L15.2413333,23.6432 C17.122,23.6432 18.6534444,22.068 18.6534444,20.1336 L18.6534444,4.7152 L19.8061111,4.7152 C20.1607778,4.7152 20.4438889,4.4232 20.4438889,4.0584 C20.4438889,3.6936 20.1607778,3.4024 19.8061111,3.4024 L19.8061111,3.4024 Z" id="Fill-1"></path>
                <path d="M9.97111111,20.1104 C10.3257778,20.1104 10.6088889,19.8192 10.6088889,19.4544 L10.6088889,7.856 C10.6088889,7.4912 10.3257778,7.2 9.97111111,7.2 C9.61644444,7.2 9.33333333,7.4912 9.33333333,7.856 L9.33333333,19.4496 C9.33333333,19.8136 9.61644444,20.1104 9.97111111,20.1104" id="Fill-3"></path>
                <path d="M6.08222222,19.4672 C6.43688889,19.4672 6.72,19.1752 6.72,18.8112 L6.72,8.656 C6.72,8.292 6.43688889,8 6.08222222,8 C5.72833333,8 5.44444444,8.292 5.44444444,8.656 L5.44444444,18.8112 C5.44444444,19.1752 5.733,19.4672 6.08222222,19.4672" id="Fill-5"></path>
                <path d="M13.8592222,19.4672 C14.2138889,19.4672 14.497,19.1752 14.497,18.8112 L14.497,8.656 C14.497,8.292 14.2138889,8 13.8592222,8 C13.5053333,8 13.2222222,8.292 13.2222222,8.656 L13.2222222,18.8112 C13.2222222,19.1752 13.5053333,19.4672 13.8592222,19.4672" id="Fill-7"></path>
            </g>
        </g>
    </g>
</svg>