<svg xmlns="http://www.w3.org/2000/svg" width="27" height="30" viewBox="0 0 27 30" version="1.1"><g stroke="none" stroke-width="1" fill="none" fill-rule="evenodd"><g transform="translate(-852.000000, -9.000000)" fill="#FFFFFF"><g transform="translate(852.000000, 9.000000)"><path d="M22.3 25.2C22.3 26.7 21.1 27.9 19.6 27.9L6.7 27.9C5.2 27.9 3.9 26.7 3.9 25.2L3.9 5.9 22.3 5.9 22.3 25.2 22.3 25.2ZM8.6 3.3C8.6 2.4 9.3 1.6 10.2 1.6L16.1 1.6C17 1.6 17.7 2.4 17.7 3.3L17.7 4.3 8.6 4.3 8.6 3.3ZM25.5 4.3L19.3 4.3 19.3 3.3C19.3 1.5 17.9 0 16.1 0L10.2 0C8.4 0 7 1.5 7 3.3L7 4.3 0.8 4.3C0.4 4.3 0 4.6 0 5.1 0 5.5 0.4 5.9 0.8 5.9L2.3 5.9 2.3 25.2C2.3 27.6 4.3 29.6 6.7 29.6L19.6 29.6C22 29.6 24 27.6 24 25.2L24 5.9 25.5 5.9C25.9 5.9 26.3 5.5 26.3 5.1 26.3 4.6 25.9 4.3 25.5 4.3L25.5 4.3ZM13.1 25C13.6 25 14 24.6 14 24.2L14 9.7C14 9.2 13.6 8.8 13.1 8.8 12.7 8.8 12.3 9.2 12.3 9.7L12.3 24.1C12.3 24.6 12.7 25 13.1 25M7.8 24.1C8.2 24.1 8.6 23.7 8.6 23.2L8.6 10.6C8.6 10.1 8.2 9.7 7.8 9.7 7.3 9.7 7 10.1 7 10.6L7 23.2C7 23.7 7.3 24.1 7.8 24.1M18.5 24.1C19 24.1 19.3 23.7 19.3 23.2L19.3 10.6C19.3 10.1 19 9.7 18.5 9.7 18 9.7 17.7 10.1 17.7 10.6L17.7 23.2C17.7 23.7 18 24.1 18.5 24.1"/></g></g></g></svg>