<?xml version="1.0" encoding="UTF-8"?>
<svg width="69px" height="56px" viewBox="0 0 69 56" version="1.1" xmlns="http://www.w3.org/2000/svg" xmlns:xlink="http://www.w3.org/1999/xlink">
    <!-- Generator: Sketch 51.1 (57501) - http://www.bohemiancoding.com/sketch -->
    <title>icon / twitter</title>
    <desc>Created with Sketch.</desc>
    <defs></defs>
    <g id="icon-/-twitter" stroke="none" stroke-width="1" fill="none" fill-rule="evenodd">
        <g id="if_twitter_294655-copy" fill="#2CA7E0">
            <path d="M69,6.62919575 C66.4613403,7.75368712 63.7332149,8.51353528 60.8697784,8.8551074 C63.7920198,7.10544916 66.0369552,4.33511949 67.0937925,1.0337051 C64.3584666,2.65377567 61.3288163,3.83040174 58.1042999,4.46425772 C55.5221366,1.71654971 51.8430827,0 47.7714463,0 C39.9537005,0 33.6150769,6.32957108 33.6150769,14.136891 C33.6150769,15.244903 33.7401872,16.3238515 33.9817072,17.3586052 C22.2166853,16.7689439 11.7855736,11.1407942 4.80369683,2.58755862 C3.58514616,4.67549311 2.88698849,7.10380122 2.88698849,9.69480552 C2.88698849,14.5995115 5.38604493,18.9266909 9.18450872,21.4619651 C6.86396702,21.3884072 4.6811367,20.7526037 2.77267905,19.6935803 C2.77132894,19.7527561 2.77132894,19.8116324 2.77132894,19.8715573 C2.77132894,26.721127 7.65108205,32.4346698 14.126967,33.7338423 C12.9391689,34.0568377 11.6885156,34.229871 10.3975089,34.229871 C9.48528357,34.229871 8.59856032,34.1410323 7.7340389,33.9762387 C9.53553772,39.5924034 14.7633196,43.680033 20.9580813,43.7938903 C16.1132811,47.5859401 10.0094269,49.8457093 3.37692896,49.8457093 C2.23428457,49.8457093 1.10754149,49.778893 0,49.6479571 C6.26481753,53.6591823 13.7058822,56 21.7000426,56 C47.7382936,56 61.9773199,34.4578853 61.9773199,15.7759878 C61.9773199,15.1631055 61.9635187,14.5535191 61.9363665,13.9470788 C64.702445,11.9539755 67.1023432,9.46409453 69,6.62919575 Z" id="Shape"></path>
        </g>
    </g>
</svg>