<svg xmlns="http://www.w3.org/2000/svg" width="33" height="27" viewBox="0 0 33 27" version="1.1"><g stroke="none" stroke-width="1" fill="none" fill-rule="evenodd"><g transform="translate(-478.000000, -406.000000)" fill-rule="nonzero" fill="#000000"><g transform="translate(407.000000, 104.000000)"><g transform="translate(48.000000, 282.000000)"><g transform="translate(23.000000, 20.000000)"><path d="M31.5 0L1.5 0C0.7 0 0 0.6 0 1.4L0 25.5C0 26.2 0.7 26.9 1.5 26.9L31.5 26.9C32.3 26.9 33 26.2 33 25.5L33 1.4C33 0.6 32.3 0 31.5 0ZM31.5 25.5L1.5 25.5C1.5 25.5 1.5 25.5 1.5 25.5L1.5 1.4 31.5 1.4 31.5 25.5ZM28.3 4L3.7 4C3.3 4 3 4.3 3 4.7L3 20.6C3 21 3.3 21.3 3.7 21.3L28.3 21.3C28.7 21.3 29.1 21 29.1 20.6L29.1 4.7C29.1 4.3 28.7 4 28.3 4ZM4.5 5.4L27.6 5.4 27.6 17.6 23 13.1C22.7 12.8 22.3 12.8 22 13.1L19.2 15.9 12.8 9.5C12.5 9.2 12 9.2 11.8 9.5L4.5 16.7 4.5 5.4 4.5 5.4ZM4.5 19.9L4.5 18.8 12.3 11 21.2 19.9 4.5 19.9 4.5 19.9ZM27.6 19.9L23.3 19.9 23.3 19.9 20.2 16.9 22.5 14.6 27.5 19.5C27.5 19.5 27.6 19.6 27.6 19.6L27.6 19.9 27.6 19.9ZM19.8 7C18.2 7 17 8.2 17 9.7 17 11.2 18.2 12.4 19.8 12.4 21.3 12.4 22.5 11.2 22.5 9.7 22.5 8.2 21.3 7 19.8 7ZM19.8 11C19 11 18.5 10.4 18.5 9.7 18.5 9 19 8.4 19.8 8.4 20.5 8.4 21.1 9 21.1 9.7 21.1 10.4 20.5 11 19.8 11ZM10.1 23L3.7 23C3.3 23 3 23.3 3 23.7 3 24.1 3.3 24.4 3.7 24.4L10.1 24.4C10.5 24.4 10.8 24.1 10.8 23.7 10.8 23.3 10.5 23 10.1 23ZM15.4 23L13.7 23C13.3 23 13 23.3 13 23.7 13 24.1 13.3 24.4 13.7 24.4L15.4 24.4C15.8 24.4 16.1 24.1 16.1 23.7 16.1 23.3 15.8 23 15.4 23Z"/></g></g></g></g></g></svg>