<svg xmlns="http://www.w3.org/2000/svg" width="28" height="32" viewBox="0 0 28 32" version="1.1"><title>user - gesto de usurio</title><desc>Created with Sketch.</desc><g stroke="none" stroke-width="1" fill="none" fill-rule="evenodd"><g transform="translate(-284.000000, -337.000000)" fill="#373737"><g transform="translate(250.000000, 324.000000)"><g transform="translate(34.000000, 13.000000)"><path d="M9 7.3C9 7.3 9 7.3 9 7.3 9.2 2.7 12.5 2.2 13.9 2.2L13.9 2.2 14 2.2C15.7 2.2 18.7 2.9 18.9 7.3 18.9 7.3 18.9 7.3 18.9 7.3 18.9 7.4 19.4 11.8 17.3 14.1 16.5 15 15.4 15.5 14 15.5L13.9 15.5 13.9 15.5C12.5 15.5 11.4 15 10.6 14.1 8.5 11.8 9 7.4 9 7.3M13.8 17.2L13.9 17.2 14 17.2 14 17.2C15.9 17.2 17.5 16.5 18.6 15.2 21.1 12.4 20.7 7.6 20.6 7.2 20.5 3.7 18.8 2.1 17.5 1.3 16.5 0.7 15.3 0.4 14 0.4L14 0.4 13.9 0.4 13.9 0.4C13.2 0.4 11.8 0.5 10.4 1.3 9.1 2.1 7.4 3.7 7.3 7.2 7.2 7.6 6.8 12.4 9.3 15.2 10.4 16.5 11.9 17.2 13.8 17.2M27.2 25.2L27.2 25.2C27.2 25.1 27.2 25.1 27.2 25 27.2 23.7 27.1 20.7 24.3 19.8 24.3 19.8 24.2 19.8 24.2 19.8 21.3 19 18.9 17.3 18.9 17.3 18.5 17 17.9 17.1 17.6 17.5 17.4 17.9 17.5 18.5 17.9 18.7 18 18.8 20.5 20.6 23.7 21.4 25.3 22 25.4 23.6 25.5 25 25.5 25.1 25.5 25.2 25.5 25.2 25.5 25.8 25.4 26.7 25.3 27.2 24.3 27.8 20.2 29.9 14 29.9 7.7 29.9 3.6 27.8 2.6 27.2 2.5 26.7 2.4 25.8 2.4 25.2 2.4 25.2 2.4 25.1 2.4 25 2.5 23.6 2.6 22 4.2 21.4 7.4 20.6 9.9 18.8 10 18.7 10.4 18.5 10.5 17.9 10.3 17.5 10 17.1 9.4 17 9 17.3 9 17.3 6.6 19 3.7 19.7 3.7 19.8 3.6 19.8 3.6 19.8 0.8 20.7 0.7 23.7 0.7 25 0.7 25 0.7 25.1 0.7 25.2L0.7 25.2C0.7 25.5 0.7 27.2 1 28.1 1.1 28.3 1.2 28.4 1.4 28.5 1.6 28.6 6.2 31.6 14 31.6 21.7 31.6 26.4 28.6 26.6 28.5 26.7 28.4 26.8 28.3 26.9 28.1 27.2 27.2 27.2 25.5 27.2 25.2"/></g></g></g></g></svg>