<svg xmlns="http://www.w3.org/2000/svg" width="26" height="36" viewBox="0 0 26 36" version="1.1"><title>Gesto de usurios</title><desc>Created with Sketch.</desc><g stroke="none" stroke-width="1" fill="none" fill-rule="evenodd"><g transform="translate(-249.000000, -171.000000)" stroke="#373737" fill="#373737"><g transform="translate(250.000000, 170.000000)"><g transform="translate(0.000000, 2.000000)"><path d="M12 1.4C17.9 1.4 22.6 6.1 22.6 12 22.6 14.7 21.6 17.1 20 19 15.5 17.7 15.3 16.1 15.3 16.1L15.3 16.1 15.2 16.1C15.3 16 15.4 15.9 15.5 15.9 17.4 13.7 17.1 10 17.1 9.6 16.9 5.8 14.2 4.4 12 4.4L11.9 4.4 11.8 4.4C9.6 4.4 6.9 5.8 6.7 9.6 6.7 10 6.4 13.7 8.3 15.9 8.4 16 8.5 16.1 8.7 16.2 8.5 16.6 7.8 17.9 4 19 2.4 17.1 1.4 14.7 1.4 12 1.4 6.1 6.1 1.4 12 1.4M8.1 9.8L8.1 9.7C8.3 6.1 11 5.8 11.8 5.8L11.9 5.8 11.9 5.8 12 5.8C12.8 5.8 15.5 6.1 15.7 9.7L15.7 9.8C15.7 9.8 16 13.2 14.5 14.9 13.8 15.6 13 16 11.9 16L11.9 16 11.9 16C10.8 16 10 15.6 9.4 14.9 7.8 13.2 8.1 9.8 8.1 9.8M12 22.6C9.4 22.6 7 21.7 5.1 20.1 8.3 19.1 9.4 17.8 9.8 17 10.4 17.2 11.1 17.4 11.8 17.4L11.9 17.4 11.9 17.4 12 17.4C12.8 17.4 13.5 17.2 14.1 16.9 14.5 17.7 15.6 19 18.8 20.1 17 21.7 14.6 22.6 12 22.6M3.4 20.3C5.6 22.6 8.6 24 12 24 18.6 24 24 18.6 24 12 24 5.4 18.6 0 12 0 5.4 0 0 5.4 0 12 0 15.2 1.2 18 3.2 20.2 3.3 20.2 3.3 20.3 3.4 20.3M3.2 29.3L20.8 29.3C21.1 29.3 21.4 29 21.4 28.6 21.4 28.3 21.1 28 20.8 28L3.2 28C2.9 28 2.5 28.3 2.5 28.6 2.5 29 2.9 29.3 3.2 29.3M18.4 33.5C18.4 33.1 18.1 32.8 17.7 32.8L6.3 32.8C5.9 32.8 5.6 33.1 5.6 33.5 5.6 33.9 5.9 34.2 6.3 34.2L17.7 34.2C18.1 34.2 18.4 33.9 18.4 33.5"/></g></g></g></g></svg>