<svg xmlns="http://www.w3.org/2000/svg" width="20" height="23" viewBox="0 0 20 23" version="1.1"><title>cone User</title><desc>Created with Sketch.</desc><g stroke="none" stroke-width="1" fill="none" fill-rule="evenodd"><g transform="translate(-995.000000, -26.000000)" fill="#FFFFFF"><g transform="translate(995.000000, 25.000000)"><g transform="translate(0.000000, 0.942105)"><path d="M19.8 18.2L19.8 18.2C19.8 18.1 19.8 18.1 19.8 18.1 19.8 17.1 19.7 14.9 17.6 14.2 17.6 14.2 17.6 14.2 17.6 14.2 15.5 13.7 13.7 12.5 13.6 12.5 13.4 12.2 13 12.3 12.7 12.6 12.5 12.9 12.6 13.3 12.9 13.5 13 13.5 14.9 14.9 17.3 15.5 18.4 15.8 18.5 17 18.5 18.1 18.5 18.1 18.5 18.2 18.5 18.2 18.5 18.6 18.5 19.3 18.4 19.7 17.7 20.1 14.6 21.6 10 21.6 5.4 21.6 2.4 20.1 1.6 19.7 1.5 19.3 1.5 18.6 1.5 18.2 1.5 18.2 1.5 18.1 1.5 18.1 1.6 17 1.7 15.8 2.8 15.4 5.2 14.8 7.1 13.5 7.1 13.5 7.4 13.3 7.5 12.9 7.3 12.6 7.1 12.3 6.7 12.2 6.4 12.4 6.4 12.5 4.6 13.7 2.4 14.2 2.4 14.2 2.4 14.2 2.4 14.2 0.3 14.9 0.3 17.1 0.2 18 0.2 18.1 0.2 18.1 0.2 18.2L0.2 18.2C0.2 18.4 0.2 19.7 0.5 20.3 0.5 20.4 0.6 20.5 0.7 20.6 0.9 20.7 4.3 22.9 10 22.9 15.8 22.9 19.2 20.7 19.3 20.6 19.4 20.5 19.5 20.4 19.6 20.3 19.8 19.7 19.8 18.4 19.8 18.2M6.4 5.2C6.4 5.2 6.4 5.2 6.4 5.1 6.5 1.8 8.9 1.4 10 1.4L10 1.4 10 1.4C11.3 1.4 13.5 2 13.7 5.1 13.7 5.2 13.7 5.2 13.7 5.2 13.7 5.2 14 8.4 12.5 10.1 11.9 10.8 11.1 11.1 10 11.1L10 11.1 10 11.1C8.9 11.1 8.1 10.8 7.5 10.1 6 8.4 6.4 5.2 6.4 5.2M9.9 12.4L10 12.4 10 12.4 10.1 12.4C11.5 12.4 12.6 11.9 13.5 10.9 15.3 8.9 15 5.4 15 5.1 14.8 2.6 13.6 1.4 12.6 0.8 11.9 0.4 11 0.2 10.1 0.1L10 0.1 10 0.1 10 0.1C9.5 0.1 8.4 0.2 7.4 0.8 6.4 1.3 5.2 2.5 5.1 5.1 5.1 5.4 4.7 8.9 6.6 10.9 7.4 11.9 8.5 12.4 9.9 12.4"/></g></g></g></g></svg>