<svg xmlns="http://www.w3.org/2000/svg" width="66" height="66" viewBox="0 0 66 66">
    <g fill="none" fill-rule="evenodd" stroke="#00E79F" stroke-linecap="round" stroke-linejoin="round" stroke-width="3" transform="translate(2 2)">
        <path d="M15 14c.17-6.397 2.903-14 15.007-14h1.986C44.097 0 46.829 7.603 47 14M44.685 33c.042.363.095.715.159 1.067.988 5.333-2.964 6.4-4.951 8.533-1.976 2.133-2.964 6.4-5.929 6.4h-5.928c-2.965 0-3.953-4.267-5.929-6.4-1.987-2.133-5.94-3.2-4.951-8.533.064-.352.117-.704.16-1.067"/>
        <path d="M18 46c0-.031.01-.073.01-.105.05-.46.1-.932.14-1.403.15-1.529.26-3.1.36-4.492M43 40c.1 1.393.21 2.963.36 4.492.04.471.09.943.14 1.403 0 .032.01.074.01.105M43.56 46c3.154 1.095 14.763 5.745 18.44 16H0c3.677-10.255 15.286-14.905 18.44-16"/>
        <path d="M43 46l-.063.074-4.114 5.146C36.784 53.648 33.72 55.04 30.5 55A11.392 11.392 0 0 1 25.815 54a10.012 10.012 0 0 1-3.638-2.78l-4.114-5.147L18 46M19.214 29h-2.143C16.48 29 16 28.508 16 27.9v-8.8c0-.608.48-1.1 1.071-1.1H44.93c.591 0 1.071.492 1.071 1.1v8.8c0 .608-.48 1.1-1.071 1.1h-2.143M8 19h3v9H8c-.552 0-1-.504-1-1.125v-6.75C7 19.504 7.448 19 8 19zM50 19h3c.552 0 1 .504 1 1.125v6.75c0 .621-.448 1.125-1 1.125h-3v-9zM36 0v14h-9V0"/>
        <rect width="38" height="19" x="12" y="14" rx="2"/>
    </g>
</svg>
