<svg xmlns="http://www.w3.org/2000/svg" width="64" height="64" viewBox="0 0 64 64">
    <path fill="#00E79F" fill-rule="evenodd" d="M7.437 0h49.321C60.673 0 64 3.663 64 8.189V55.81C64 60.337 60.869 64 56.758 64H7.438C3.327 64 0 60.337 0 55.811V8.19C0 3.663 3.327 0 7.437 0zm54.019 15.946H2.544v39.865c0 3.017 2.153 5.388 4.893 5.388h49.321c2.545 0 4.698-2.37 4.698-5.388V15.946zM14.287 6.465c.98 0 1.762.862 1.762 1.939s-.783 1.94-1.762 1.94c-.978 0-1.761-.863-1.761-1.94s.783-1.94 1.761-1.94zm-5.871 0c.978 0 1.761.862 1.761 1.939s-.783 1.94-1.761 1.94c-.979 0-1.762-.863-1.762-1.94s.783-1.94 1.762-1.94zm11.939 0c.978 0 1.761.862 1.761 1.939s-.783 1.94-1.761 1.94c-.979 0-1.762-.863-1.762-1.94s.783-1.94 1.762-1.94z"/>
</svg>
