<svg xmlns="http://www.w3.org/2000/svg" width="130" height="64" viewBox="0 0 130 64">
    <g fill="none" fill-rule="nonzero">
        <path fill="#00E79F" d="M127 36h-12c-1.658 0-3 1.297-3 2.895V61.02c0 1.6 1.343 2.979 3 2.979h12c1.657 0 3-1.298 3-2.9V38.898c0-1.6-1.343-2.897-3-2.897zm-8.002.967H123v.966h-4v-.966zM121 62.07c-.553 0-1-.433-1-.966 0-.532.448-.964 1-.964.55 0 .999.432.999.964 0 .533-.448.966-.999.966zm7-3.862h-14.002V38.897H128v19.311zM40.868 0H2.667A2.675 2.675 0 0 0 0 2.685v49.853c0 1.432 1.164 2.603 2.586 2.603h23.116v5.699h-3.57c-1.744 0-3.139 1.404-3.221 3.16h45.178c-.082-1.756-1.477-3.16-3.221-3.16h-3.57v-5.7h23.116c1.422 0 2.586-1.17 2.586-2.602V2.685A2.675 2.675 0 0 0 80.333 0H40.868zm0 5.595h36.621v38.417h-1.741v-.556a9.073 9.073 0 0 1-3.107.546h-2.403v.01H12.762v-.01h-2.403a9.073 9.073 0 0 1-3.107-.546v.556H5.511V5.595h35.357z"/>
        <path fill="#FFF" d="M42.5 52a2.5 2.5 0 0 0 0-5c-1.38 0-2.5 1.123-2.5 2.51 0 1.366 1.12 2.49 2.5 2.49z"/>
        <g fill="#00E79F">
            <path d="M88 56V29a.5.5 0 0 1 .5-.5h31a.5.5 0 0 1 .5.5v5h2v-8a4 4 0 0 0-4-4H90a4 4 0 0 0-4 4v34a4 4 0 0 0 4 4h20v-7.5H88.5a.5.5 0 0 1-.5-.5zm14-31h4a.5.5 0 1 1 0 1h-4a.5.5 0 1 1 0-1zm2 33.25a1.25 1.25 0 1 1 0 2.5 1.25 1.25 0 0 1 0-2.5z"/>
        </g>
    </g>
</svg>
