<?xml version="1.0" encoding="UTF-8"?>
<svg width="68px" height="68px" viewBox="0 0 68 68" version="1.1" xmlns="http://www.w3.org/2000/svg" xmlns:xlink="http://www.w3.org/1999/xlink">
    <!-- Generator: Sketch 51.1 (57501) - http://www.bohemiancoding.com/sketch -->
    <title>icon / whatsapp</title>
    <desc>Created with Sketch.</desc>
    <defs></defs>
    <g id="icon-/-whatsapp" stroke="none" stroke-width="1" fill="none" fill-rule="evenodd">
        <g id="if_WhatsApp_1298775-Copy">
            <rect id="Rectangle-path" x="0" y="0" width="68" height="68"></rect>
            <path d="M24.4980625,17.2704062 C23.8387812,15.6915312 23.338875,15.6315 22.340125,15.591125 C22.000125,15.5714687 21.6213437,15.5518125 21.201125,15.5518125 C19.9016875,15.5518125 18.5432812,15.9316562 17.7235625,16.7710312 C16.7248125,17.7905 14.2465312,20.1689062 14.2465312,25.0457812 C14.2465312,29.9231875 17.80325,34.6401562 18.2829687,35.3005 C18.782875,35.95925 25.217375,46.1135625 35.2085938,50.252 C43.0216875,53.4899687 45.3400625,53.1898125 47.1181563,52.8105 C49.7159688,52.2510937 52.9730625,50.3311562 53.7927813,48.0133125 C54.6119688,45.6944062 54.6119688,43.7155 54.3718438,43.2958125 C54.13225,42.876125 53.4724375,42.6370625 52.4736875,42.136625 C51.4749375,41.6367187 46.6187813,39.238125 45.6997188,38.9183125 C44.8003125,38.5788437 43.9412813,38.6989062 43.2623438,39.6583437 C42.3029063,40.997625 41.3641875,42.3570937 40.6045,43.1762812 C40.00525,43.8159062 39.025625,43.896125 38.2064375,43.556125 C37.1072813,43.097125 34.0302813,42.0165625 30.2334375,38.638875 C27.295625,36.020875 25.2975938,32.76325 24.7185313,31.783625 C24.1389375,30.7843437 24.6585,30.2042187 25.1180313,29.665 C25.6179375,29.0450312 26.097125,28.6056875 26.5965,28.0255625 C27.0964063,27.4459687 27.3758438,27.1463437 27.6956563,26.4663437 C28.0356563,25.8070625 27.7955313,25.1270625 27.5559375,24.6271562 C27.3158125,24.1261875 25.3177812,19.2487812 24.4980625,17.2704062 Z M33.9899063,0 C15.2463438,0 0,15.2505938 0,33.9994687 C0,41.4348437 2.3980625,48.331 6.47434375,53.9277187 L2.237625,66.5603125 L15.306375,62.383625 C20.6815625,65.9414062 27.095875,68 34.0100938,68 C52.7536562,68 68,52.7483437 68,34.0005313 C68,15.2516563 52.7536562,0.0010625 34.0100938,0.0010625 L33.9904375,0.0010625 L33.9904375,0 L33.9899063,0 Z" id="WhatsApp_1_" fill="#67C15E"></path>
        </g>
    </g>
</svg>