<svg xmlns="http://www.w3.org/2000/svg" width="86" height="86" viewBox="0 0 86 86">
    <defs>
        <filter id="a" width="113.4%" height="113.7%" x="-6.7%" y="-6.9%" filterUnits="objectBoundingBox">
            <feOffset dy="2" in="SourceAlpha" result="shadowOffsetOuter1"/>
            <feGaussianBlur in="shadowOffsetOuter1" result="shadowBlurOuter1" stdDeviation="3"/>
            <feColorMatrix in="shadowBlurOuter1" result="shadowMatrixOuter1" values="0 0 0 0 0 0 0 0 0 0 0 0 0 0 0 0 0 0 0.25 0"/>
            <feMerge>
                <feMergeNode in="shadowMatrixOuter1"/>
                <feMergeNode in="SourceGraphic"/>
            </feMerge>
        </filter>
    </defs>
    <g fill="none" fill-rule="evenodd" filter="url(#a)" transform="translate(-77 -41)">
        <path d="M83 45h74v74H83z"/>
        <path fill="#67C15E" d="M109.66 63.794c-.718-1.718-1.262-1.783-2.349-1.827a20.97 20.97 0 0 0-1.24-.043c-1.413 0-2.892.413-3.784 1.327-1.086 1.11-3.783 3.698-3.783 9.005s3.87 10.44 4.392 11.16c.544.716 7.546 11.766 18.42 16.27 8.502 3.524 11.025 3.197 12.96 2.784 2.827-.609 6.371-2.698 7.263-5.22.892-2.524.892-4.677.63-5.134-.26-.457-.978-.717-2.065-1.261-1.087-.544-6.372-3.155-7.372-3.503-.979-.37-1.914-.238-2.652.806-1.044 1.457-2.066 2.936-2.893 3.828-.652.696-1.718.783-2.61.413-1.196-.5-4.544-1.675-8.676-5.35-3.197-2.85-5.371-6.395-6.001-7.46-.631-1.088-.066-1.72.434-2.306.544-.675 1.066-1.153 1.61-1.785.543-.63.847-.956 1.195-1.696.37-.718.11-1.458-.152-2.002-.261-.545-2.435-5.853-3.327-8.006zM119.989 45C99.592 45 83 61.596 83 82c0 8.09 2.61 15.596 7.046 21.686l-4.61 13.747 14.22-4.545A36.707 36.707 0 0 0 120.012 119C140.408 119 157 102.403 157 82s-16.592-36.999-36.989-36.999h-.021V45h-.001z"/>
    </g>
</svg>
