<?xml version="1.0" encoding="UTF-8"?>
<svg width="20px" height="23px" viewBox="0 0 20 23" version="1.1" xmlns="http://www.w3.org/2000/svg" xmlns:xlink="http://www.w3.org/1999/xlink">
    <!-- Generator: Sketch 52.6 (67491) - http://www.bohemiancoding.com/sketch -->
    <title>xlsx-file-format-extension copy</title>
    <desc>Created with Sketch.</desc>
    <g id="Automatización" stroke="none" stroke-width="1" fill="none" fill-rule="evenodd">
        <g id="Web---Ejcuciones-de-pruebas-3.0" transform="translate(-528.000000, -180.000000)" fill="#1B6C40" fill-rule="nonzero">
            <g id="xlsx-file-format-extension-copy" transform="translate(528.000000, 180.000000)">
                <path d="M18.7345568,8.22698713 L18.1922652,8.22698713 L18.1922652,5.56220693 C18.1922652,5.54559531 18.1897115,5.52885785 18.1877756,5.5118687 C18.1869106,5.40615841 18.1536301,5.30225191 18.082497,5.21990695 L13.7281004,0.154244735 C13.7267412,0.152944331 13.7254644,0.152482897 13.7245994,0.151098595 C13.6986504,0.121566832 13.6684179,0.0969849952 13.6363318,0.0757590404 C13.6268996,0.0692989672 13.6173438,0.0638876071 13.6074173,0.0581826074 C13.5797384,0.0428713949 13.5502884,0.029993197 13.5200559,0.0207225725 C13.5118181,0.0185412491 13.5044453,0.0151014698 13.4962899,0.0129201464 C13.4633801,0.00494992623 13.4292346,0 13.3946772,0 L2.69362336,0 C2.20500073,0 1.80802316,0.40476134 1.80802316,0.901977235 L1.80802316,8.22673544 L1.26581392,8.22673544 C0.566798951,8.22673544 0,8.80377938 0,9.51593953 L0,16.2198176 C0,16.9313066 0.566798951,17.5089378 1.26581392,17.5089378 L1.80802316,17.5089378 L1.80802316,22.0980647 C1.80802316,22.5953226 2.20500073,23 2.69362336,23 L17.3064178,23 C17.7946286,23 18.192018,22.5953226 18.192018,22.0980647 L18.192018,17.5089797 L18.7343096,17.5089797 C19.4331187,17.5089797 20,16.9316002 20,16.2198595 L20,9.51619122 C20.0000412,8.80382133 19.4335306,8.22698713 18.7345568,8.22698713 Z M2.69362336,0.901977235 L12.9518565,0.901977235 L12.9518565,5.51656693 C12.9518565,5.76574118 13.1502629,5.96755555 13.3946772,5.96755555 L17.306459,5.96755555 L17.306459,8.22694518 L2.69362336,8.22694518 L2.69362336,0.901977235 Z M11.6653246,13.1995656 C10.7952526,12.8908663 10.2275063,12.4006559 10.2275063,11.62465 C10.2275063,10.7144509 10.9734353,10.0181473 12.2093461,10.0181473 C12.7996227,10.0181473 13.2350706,10.1445802 13.5455929,10.2871632 L13.2815316,11.260369 C13.0718394,11.1577629 12.6988749,11.0071258 12.1859921,11.0071258 C11.6731093,11.0071258 11.4244937,11.2446383 11.4244937,11.5216664 C11.4244937,11.8620787 11.7198586,12.0122964 12.3957254,12.273426 C13.320249,12.6218085 13.755491,13.1123965 13.755491,13.8641561 C13.755491,14.7586245 13.079377,15.5183963 11.6417646,15.5183963 C11.0435386,15.5183963 10.4530149,15.3602923 10.1576913,15.1938405 L10.3983574,14.196724 C10.7170763,14.3627563 11.2067698,14.52925 11.711662,14.52925 C12.2560954,14.52925 12.5431813,14.2997915 12.5431813,13.951451 C12.5433872,13.6193025 12.2947717,13.4289821 11.6653246,13.1995656 Z M9.66111922,14.4260985 L9.66111922,15.4394491 L6.38912286,15.4394491 L6.38912286,10.1046452 L7.57853158,10.1046452 L7.57853158,14.4260985 L9.66111922,14.4260985 Z M2.5898276,15.4394491 L1.23776435,15.4394491 L2.75301759,12.7399355 L1.29192761,10.1044354 L2.65202268,10.1044354 L3.11024798,11.0780607 C3.26569447,11.4025745 3.38234113,11.6634105 3.50681366,11.9646429 L3.52192994,11.9646429 C3.64660841,11.6242306 3.74752095,11.3868019 3.8792427,11.0780607 L4.32226934,10.1044354 L5.67437378,10.1044354 L4.197838,12.7080127 L5.75230297,15.4389877 L4.38475273,15.4389877 L3.91046381,14.4732487 C3.71650579,14.1017945 3.59207445,13.8245147 3.44437145,13.5158155 L3.42892565,13.5158155 C3.3199813,13.8245147 3.18817717,14.1017945 3.02482242,14.4732487 L2.5898276,15.4394491 Z M17.306459,21.8538404 L2.69362336,21.8538404 L2.69362336,17.5089797 L17.306459,17.5089797 L17.306459,21.8538404 Z M17.3144496,15.4394491 L16.8402843,14.4737101 C16.6460791,14.1019203 16.5217714,13.8249762 16.3740684,13.516235 L16.3589933,13.516235 C16.2500077,13.8249762 16.1177093,14.1019203 15.954231,14.4737101 L15.5196481,15.4394491 L14.1671729,15.4394491 L15.6824262,12.7399355 L14.2214186,10.1044354 L15.5814725,10.1044354 L16.0402744,11.0780607 C16.1955561,11.4025745 16.3118321,11.6634105 16.4364282,11.9646429 L16.4519564,11.9646429 C16.5760582,11.6242306 16.676806,11.3868019 16.8091044,11.0780607 L17.2519662,10.1044354 L18.6044002,10.1044354 L17.1278232,12.7080127 L18.6819999,15.4389877 L17.3144496,15.4389877 L17.3144496,15.4394491 Z" id="Shape"></path>
            </g>
        </g>
    </g>
</svg>