<svg xmlns="http://www.w3.org/2000/svg" width="309" height="348" viewBox="0 0 309 348" version="1.1"><title>Ilustrao</title><desc>Created with Sketch.</desc><defs><polygon points="0 347.9 308.2 347.9 308.2 0 0 0"/></defs><g stroke="none" stroke-width="1" fill="none" fill-rule="evenodd"><g transform="translate(-758.000000, -162.000000)"><g transform="translate(213.000000, 162.000000)"><g transform="translate(545.000000, 0.000000)"><path d="M307.8 149.9L307.8 340.5C307.8 344.4 304.7 347.5 300.8 347.5L189.6 347.5C185.7 347.5 182.6 344.4 182.6 340.5L182.6 149.9C182.6 148.2 184 146.9 185.7 146.9L304.7 146.9C306.4 146.9 307.8 148.2 307.8 149.9ZM295.4 160.1L292.4 163C292.4 163.1 292.4 163.2 292.4 163.3 292.5 163.3 292.5 163.4 292.6 163.4 292.6 163.4 292.7 163.3 292.7 163.3L295.7 160.4 298.6 163.3C298.7 163.3 298.7 163.4 298.8 163.4 298.8 163.4 298.9 163.3 298.9 163.3 299 163.2 299 163.1 298.9 163L296 160.1 298.9 157.2C299 157.1 299 156.9 298.9 156.9 298.8 156.8 298.7 156.8 298.6 156.9L295.7 159.8 292.7 156.9C292.6 156.8 292.5 156.8 292.4 156.9 292.4 156.9 292.4 157.1 292.4 157.2L295.4 160.1ZM300.1 310.7L300.1 329.4C300.1 333.5 296.8 336.8 292.8 336.8L198 336.8C193.9 336.8 190.7 333.5 190.7 329.4L190.7 310.7C190.7 307.4 193.3 304.8 196.5 304.8L294.2 304.8C297.4 304.8 300.1 307.4 300.1 310.7ZM295.1 300.8L195.6 300.8C192.9 300.8 190.7 298.5 190.7 295.8L190.7 278.2C190.7 275.4 192.9 273.2 195.6 273.2L295.1 273.2C297.9 273.2 300.1 275.4 300.1 278.2L300.1 295.8C300.1 298.5 297.9 300.8 295.1 300.8ZM217.3 292.7L200.6 292.7C197.9 292.7 195.7 290.5 195.7 287.9L195.7 286.1C195.7 283.5 197.9 281.3 200.6 281.3L217.3 281.3C220 281.3 222.2 283.5 222.2 286.1L222.2 287.9C222.2 290.5 220 292.7 217.3 292.7ZM207.3 289.1L207.3 285 210.3 287.1 207.3 289.1ZM210.6 287L207.3 284.7C207.3 284.7 207.2 284.7 207.2 284.7 207.1 284.7 207.1 284.8 207.1 284.8L207.1 289.4C207.1 289.4 207.1 289.4 207.2 289.5 207.2 289.5 207.2 289.5 207.2 289.5 207.3 289.5 207.3 289.5 207.3 289.5L210.6 287.2C210.6 287.2 210.7 287.1 210.7 287.1 210.7 287 210.6 287 210.6 287Z" stroke="@baseColor"/><mask fill="white"/><polygon stroke="@baseColor" mask="url(#mask-2)" points="229.8 285.7 289.3 285.7 289.3 282.4 229.8 282.4"/><polygon stroke="@baseColor" mask="url(#mask-2)" points="229.8 292.3 272.8 292.3 272.8 289 229.8 289"/><polygon stroke="@baseColor" mask="url(#mask-2)" points="190.5 269.2 299.9 269.2 299.9 177.7 190.5 177.7"/><polygon stroke="@baseColor" mask="url(#mask-2)" points="199.9 316.9 290.9 316.9 290.9 313.6 199.9 313.6"/><polygon stroke="@baseColor" mask="url(#mask-2)" points="199.9 327.7 290.9 327.7 290.9 324.4 199.9 324.4"/><path d="M130.6 262.3C124.8 262.3 120.1 257.6 120.1 251.8L120.1 230.6C120.1 224.8 124.8 220 130.6 220L208.2 220C214 220 218.7 224.8 218.7 230.6L218.7 262.3 130.6 262.3ZM130.8 235.5L207.3 235.5 207.3 231.4 130.8 231.4 130.8 235.5ZM130.8 247.6L155.6 247.6 155.6 243.5 130.8 243.5 130.8 247.6ZM112.4 239L112.4 239.4C112.4 240 111.8 240.5 111.2 240.5L104.8 240.5C104.1 240.5 103.6 240 103.6 239.4L103.6 239C103.6 238.3 104.1 237.8 104.8 237.8L111.2 237.8C111.8 237.8 112.4 238.3 112.4 239M112.8 243.2L112.9 243.5C113.1 244.1 112.7 244.8 112.1 245L105.9 246.7C105.3 246.9 104.7 246.5 104.5 245.9L104.4 245.5C104.2 244.9 104.6 244.3 105.2 244.1L111.4 242.4C112 242.2 112.6 242.6 112.8 243.2M104.5 232.4L104.4 232.8C104.2 233.4 104.6 234 105.2 234.2L111.4 236C112 236.1 112.6 235.8 112.8 235.2L112.9 234.8C113.1 234.2 112.7 233.5 112.1 233.4L105.9 231.6C105.3 231.5 104.7 231.8 104.5 232.4M226.3 239L226.3 239.4C226.3 240 226.8 240.5 227.5 240.5L233.9 240.5C234.5 240.5 235.1 240 235.1 239.4L235.1 239C235.1 238.3 234.5 237.8 233.9 237.8L227.5 237.8C226.8 237.8 226.3 238.3 226.3 239M225.9 243.2L225.8 243.5C225.6 244.1 225.9 244.8 226.6 245L232.8 246.7C233.4 246.9 234 246.5 234.2 245.9L234.3 245.5C234.4 244.9 234.1 244.3 233.5 244.1L227.3 242.4C226.7 242.2 226 242.6 225.9 243.2M234.2 232.4L234.3 232.8C234.4 233.4 234.1 234 233.5 234.2L227.3 236C226.7 236.1 226 235.8 225.9 235.2L225.8 234.8C225.6 234.2 225.9 233.5 226.6 233.4L232.8 231.6C233.4 231.5 234 231.8 234.2 232.4" fill="@baseColor" mask="url(#mask-2)"/><polygon stroke="@baseColor" mask="url(#mask-2)" points="9.8 111.2 276.9 111.2 276.9 27.3 9.8 27.3"/><polyline stroke="@baseColor" mask="url(#mask-2)" points="9.8 93.2 64.2 78.3 119.2 88.4 199.1 65.5 231.9 75.6 261.5 61.5"/><polygon stroke="@baseColor" mask="url(#mask-2)" points="14.5 34 72.2 34 72.2 31.3 14.5 31.3"/><polygon stroke="@baseColor" mask="url(#mask-2)" points="14.8 39 39 39 39 36.3 14.8 36.3"/><polygon stroke="@baseColor" mask="url(#mask-2)" points="193.7 128 251.4 128 251.4 125.3 193.7 125.3"/><polygon stroke="@baseColor" mask="url(#mask-2)" points="194 133 218.2 133 218.2 130.3 194 130.3"/><polygon stroke="@baseColor" mask="url(#mask-2)" points="101.1 128 158.8 128 158.8 125.3 101.1 125.3"/><polygon stroke="@baseColor" mask="url(#mask-2)" points="101.4 133 158.5 133 158.5 130.3 101.4 130.3"/><polygon stroke="@baseColor" mask="url(#mask-2)" points="101.4 138.4 129.6 138.4 129.6 135.7 101.4 135.7"/><path d="M279.7 166.3L7 166.3C3.4 166.3 0.4 163.3 0.4 159.6L0.4 7C0.4 3.4 3.4 0.4 7 0.4L279.7 0.4C283.3 0.4 286.3 3.4 286.3 7L286.3 159.6C286.3 163.3 283.3 166.3 279.7 166.3ZM0.4 16.5L286.3 16.5M260.8 8.1C260.8 9.1 260 9.8 259.1 9.8 258.2 9.8 257.4 9.1 257.4 8.1 257.4 7.2 258.2 6.5 259.1 6.5 260 6.5 260.8 7.2 260.8 8.1ZM266.8 8.1C266.8 9.1 266.1 9.8 265.2 9.8 264.2 9.8 263.5 9.1 263.5 8.1 263.5 7.2 264.2 6.5 265.2 6.5 266.1 6.5 266.8 7.2 266.8 8.1ZM272.9 8.1C272.9 9.1 272.1 9.8 271.2 9.8 270.3 9.8 269.5 9.1 269.5 8.1 269.5 7.2 270.3 6.5 271.2 6.5 272.1 6.5 272.9 7.2 272.9 8.1Z" stroke="@baseColor" mask="url(#mask-2)"/><polygon stroke="@baseColor" mask="url(#mask-2)" points="188.7 157.2 276.6 157.2 276.6 118.9 188.7 118.9"/><polygon stroke="@baseColor" mask="url(#mask-2)" points="88.3 138.1 176.2 138.1 176.2 119.3 88.3 119.3"/><path d="M190.7 214.8L38.9 214.8 38.9 142.8C38.9 137 43.6 132.2 49.4 132.2L190.7 132.2C196.5 132.2 201.3 137 201.3 142.8L201.3 204.3C201.3 210.1 196.5 214.8 190.7 214.8ZM56.3 151.7L179.1 151.7 179.1 147.7 56.3 147.7 56.3 151.7ZM56.3 163.8L179.1 163.8 179.1 159.8 56.3 159.8 56.3 163.8ZM56.3 175.9L179.1 175.9 179.1 171.9 56.3 171.9 56.3 175.9ZM56.3 188L128.8 188 128.8 183.9 56.3 183.9 56.3 188Z" fill="@baseColor" mask="url(#mask-2)"/></g></g></g></g></svg>