<?xml version="1.0" encoding="UTF-8"?>
<svg width="724px" height="750px" viewBox="0 0 724 750" version="1.1" xmlns="http://www.w3.org/2000/svg" xmlns:xlink="http://www.w3.org/1999/xlink">
    <!-- Generator: sketchtool 52.4 (67378) - http://www.bohemiancoding.com/sketch -->
    <title>9018843F-0539-4138-9F40-E1B33BA5B9B6</title>
    <desc>Created with sketchtool.</desc>
    <defs>
        <linearGradient x1="0%" y1="28.4038393%" x2="132.981195%" y2="28.4038393%" id="linearGradient-1">
            <stop stop-color="#00F5A5" stop-opacity="0.451737998" offset="0%"></stop>
            <stop stop-color="#00E79F" offset="100%"></stop>
        </linearGradient>
    </defs>
    <g id="Login-(v1-e-v2/redesign)" stroke="none" stroke-width="1" fill="none" fill-rule="evenodd">
        <g id="1.7-login-(error-fields)-(v2)--" transform="translate(-556.000000, 0.000000)">
            <g id="ilustra" transform="translate(556.000000, -75.000000)">
                <circle id="oval" fill="url(#linearGradient-1)" cx="494" cy="450" r="450"></circle>
                <circle id="oval" fill="url(#linearGradient-1)" opacity="0.374944196" cx="494" cy="615" r="450"></circle>
                <circle id="oval" fill="url(#linearGradient-1)" opacity="0.374944196" cx="219.5" cy="117.5" r="97.5"></circle>
                <g id="icons" transform="translate(0.000000, 202.000000)">
                    <path d="M735.86281,153 L562.13855,153 C553.225709,153 546,160.273515 546,169.245324 C546,178.217133 553.225709,185.48928 562.13855,185.48928 L721.694167,185.48928 L731.551855,198 L731.551855,185.48928 L735.86281,185.48928 C744.775651,185.48928 752,178.217133 752,169.245324 C752,160.273515 744.775651,153 735.86281,153" id="Fill-19" fill="#FFFFFF" transform="translate(649.000000, 175.500000) scale(-1, 1) translate(-649.000000, -175.500000) "></path>
                    <path d="M292.167528,0 L24.8345641,0 C11.1191735,0 0,11.1527233 0,24.9094973 C0,38.6662713 11.1191735,49.8168963 24.8345641,49.8168963 L270.364325,49.8168963 L285.53368,69 L285.53368,49.8168963 L292.167528,49.8168963 C305.882919,49.8168963 317,38.6662713 317,24.9094973 C317,11.1527233 305.882919,0 292.167528,0" id="Fill-19" fill="#FFFFFF"></path>
                    <path d="M780.014611,257 L650.986398,257 C644.366667,257 639,262.333911 639,268.913238 C639,275.492565 644.366667,280.825472 650.986398,280.825472 L769.491299,280.825472 L776.812786,290 L776.812786,280.825472 L780.014611,280.825472 C786.634342,280.825472 792,275.492565 792,268.913238 C792,262.333911 786.634342,257 780.014611,257" id="Fill-19" fill="#FFFFFF" transform="translate(715.500000, 273.500000) scale(-1, 1) translate(-715.500000, -273.500000) "></path>
                    <path d="M188.999324,159.185874 C163.738416,159.185874 143.185793,179.738763 143.185793,205 C143.185793,230.261237 163.738416,250.812775 188.999324,250.812775 C214.261584,250.812775 234.812855,230.261237 234.812855,205 C234.812855,179.738763 214.261584,159.185874 188.999324,159.185874 Z M188.999324,257 C160.326496,257 137,233.6732 137,205 C137,176.3268 160.326496,153 188.999324,153 C217.672152,153 241,176.3268 241,205 C241,233.6732 217.672152,257 188.999324,257 Z" id="Fill-48" fill="#05E0A9"></path>
                    <path d="M189.499319,170.234946 C170.054944,170.234946 154.234844,186.055306 154.234844,205.5 C154.234844,224.944694 170.054944,240.763691 189.499319,240.763691 C208.943694,240.763691 224.763793,224.944694 224.763793,205.5 C224.763793,186.055306 208.943694,170.234946 189.499319,170.234946 Z M189.499319,247 C166.615969,247 148,228.383725 148,205.5 C148,182.617637 166.615969,164 189.499319,164 C212.382668,164 231,182.617637 231,205.5 C231,228.383725 212.382668,247 189.499319,247 Z" id="Fill-49" fill="#05E0A9"></path>
                    <path d="M189.499321,180.217114 C176.11027,180.217114 165.216976,191.110651 165.216976,204.5 C165.216976,217.889349 176.11027,228.781527 189.499321,228.781527 C202.888372,228.781527 213.781666,217.889349 213.781666,204.5 C213.781666,191.110651 202.888372,180.217114 189.499321,180.217114 Z M189.499321,235 C172.681151,235 159,221.317186 159,204.5 C159,187.681456 172.681151,174 189.499321,174 C206.31749,174 220,187.681456 220,204.5 C220,221.317186 206.31749,235 189.499321,235 Z" id="Fill-51" fill="#05E0A9"></path>
                    <path d="M189.5,191.179287 C185.749896,191.179287 182.279328,192.695752 179.728393,195.447803 C177.439439,197.916277 176.179501,201.130155 176.179501,204.499325 C176.179501,211.84398 182.15509,217.819362 189.5,217.819362 C196.84491,217.819362 202.820499,211.84398 202.820499,204.499325 C202.820499,197.154669 196.84491,191.179287 189.5,191.179287 Z M189.5,224 C178.747992,224 170,215.252311 170,204.499325 C170,199.567778 171.844668,194.860393 175.195048,191.245455 C178.874931,187.276722 184.088885,185 189.5,185 C200.253359,185 209,193.746338 209,204.499325 C209,215.252311 200.253359,224 189.5,224 Z" id="Fill-52" fill="#FFFFFF"></path>
                    <path d="M219.57877,106.295866 C219.57877,109.774696 216.762526,112.593092 213.289385,112.593092 C209.816244,112.593092 207,109.774696 207,106.295866 C207,102.818396 209.816244,100 213.289385,100 C216.762526,100 219.57877,102.818396 219.57877,106.295866 Z M670,334.702775 C670,338.180246 667.183756,341 663.710615,341 C660.237474,341 657.42123,338.180246 657.42123,334.702775 C657.42123,331.225304 660.237474,328.40555 663.710615,328.40555 C667.183756,328.40555 670,331.225304 670,334.702775 Z" id="Stroke-72" stroke="#FFFFFF" stroke-width="4"></path>
                    <path d="M239,119.499296 C239,122.537082 236.537082,125 233.500704,125 C230.462918,125 228,122.537082 228,119.499296 C228,116.461509 230.462918,114 233.500704,114 C236.537082,114 239,116.461509 239,119.499296" id="Fill-73" fill="#FFFFFF"></path>
                    <path d="M649,341.500682 C649,344.538128 646.537822,347 643.5,347 C640.462178,347 638,344.538128 638,341.500682 C638,338.463236 640.462178,336 643.5,336 C646.537822,336 649,338.463236 649,341.500682" id="Fill-82" fill="#FFFFFE"></path>
                    <path d="M564,52.5008198 C564,54.9865185 561.984879,57 559.49918,57 C557.013482,57 555,54.9865185 555,52.5008198 C555,50.0151212 557.013482,48 559.49918,48 C561.984879,48 564,50.0151212 564,52.5008198" id="Fill-83" fill="#373737"></path>
                    <path d="M507,72 C507,73.6575225 505.656525,75 503.999357,75 C502.343475,75 501,73.6575225 501,72 C501,70.3424775 502.343475,69 503.999357,69 C505.656525,69 507,70.3424775 507,72" id="Fill-84" fill="#373737"></path>
                    <path d="M595.999325,321 C589.382269,321 584,326.382571 584,333.001351 C584,335.337311 584.678187,337.605719 585.96161,339.563387 C586.185871,339.906553 586.237208,340.334834 586.098058,340.722585 L584.865972,344.13533 L588.278525,342.904526 C588.663552,342.762666 589.094512,342.814006 589.437658,343.039631 C591.393864,344.323125 593.663496,345 595.999325,345 C602.616381,345 608,339.617429 608,333.001351 C608,326.382571 602.616381,321 595.999325,321 Z" id="Fill-89" fill="#95FFE2"></path>
                    <path d="M702.498171,55 C684.576977,55 670,69.5777978 670,87.5036591 C670,93.8302184 671.836758,99.9738235 675.312693,105.275839 C675.920068,106.205247 676.059105,107.365177 675.68224,108.415334 L672.345342,117.658185 L681.587672,114.324758 C682.630453,113.940554 683.797636,114.079599 684.726991,114.690667 C690.025049,118.166798 696.171967,120 702.498171,120 C720.419364,120 735,105.422202 735,87.5036591 C735,69.5777978 720.419364,55 702.498171,55 Z" id="Fill-89" fill="#FFFFFE"></path>
                    <path d="M153.896382,312.977359 C149.991502,312.977359 146.814419,309.799079 146.814419,305.895784 C146.814419,301.991119 149.991502,298.81421 153.896382,298.81421 C157.79989,298.81421 160.978344,301.991119 160.978344,305.895784 C160.978344,309.799079 157.79989,312.977359 153.896382,312.977359 Z M168,317.302779 L162.823191,312.124884 C164.060855,310.358259 164.792763,308.211995 164.792763,305.895784 C164.792763,299.887342 159.905154,295 153.896382,295 C147.88761,295 143,299.887342 143,305.895784 C143,311.904227 147.88761,316.791568 153.896382,316.791568 C156.212719,316.791568 158.359101,316.059701 160.125822,314.822104 L165.302632,320 L168,317.302779 Z" id="Fill-92" fill="#95FFE2"></path>
                </g>
                <g id="icons" transform="translate(189.000000, 477.000000)">
                    <path d="M14,2 C14,3.10406762 13.1048877,4 11.9994716,4 C10.8951123,4 10,3.10406762 10,2 C10,0.894875858 10.8951123,0 11.9994716,0 C13.1048877,0 14,0.894875858 14,2" id="Fill-49" fill="#373737"></path>
                    <path d="M26,2 C26,3.10406762 25.1051241,4 24,4 C22.8959324,4 22,3.10406762 22,2 C22,0.894875858 22.8959324,0 24,0 C25.1051241,0 26,0.894875858 26,2" id="Fill-50" fill="#373737"></path>
                    <path d="M38,2 C38,3.10406762 37.1051241,4 36,4 C34.8959324,4 34,3.10406762 34,2 C34,0.894875858 34.8959324,0 36,0 C37.1051241,0 38,0.894875858 38,2" id="Fill-51" fill="#373737"></path>
                    <path d="M50,2 C50,3.10406762 49.1048877,4 47.9994716,4 C46.8951123,4 46,3.10406762 46,2 C46,0.894875858 46.8951123,0 47.9994716,0 C49.1048877,0 50,0.894875858 50,2" id="Fill-52" fill="#373737"></path>
                    <path d="M62,2 C62,3.10406762 61.1048877,4 59.9994716,4 C58.8951123,4 58,3.10406762 58,2 C58,0.894875858 58.8951123,0 59.9994716,0 C61.1048877,0 62,0.894875858 62,2" id="Fill-53" fill="#373737"></path>
                    <path d="M194,170 C194,171.104068 193.104068,172 192,172 C190.894876,172 190,171.104068 190,170 C190,168.895932 190.894876,168 192,168 C193.104068,168 194,168.895932 194,170" id="Fill-54" fill="#FFFFFF"></path>
                    <path d="M206,170 C206,171.104068 205.104068,172 204,172 C202.894876,172 202,171.104068 202,170 C202,168.895932 202.894876,168 204,168 C205.104068,168 206,168.895932 206,170" id="Fill-55" fill="#FFFFFF"></path>
                    <path d="M218,170 C218,171.104068 217.104068,172 216,172 C214.894876,172 214,171.104068 214,170 C214,168.895932 214.894876,168 216,168 C217.104068,168 218,168.895932 218,170" id="Fill-56" fill="#FFFFFF"></path>
                    <path d="M230,170 C230,171.104068 229.104068,172 228,172 C226.894876,172 226,171.104068 226,170 C226,168.895932 226.894876,168 228,168 C229.104068,168 230,168.895932 230,170" id="Fill-57" fill="#FFFFFF"></path>
                    <path d="M242,170 C242,171.104068 241.104068,172 240,172 C238.894876,172 238,171.104068 238,170 C238,168.895932 238.894876,168 240,168 C241.104068,168 242,168.895932 242,170" id="Fill-58" fill="#FFFFFF"></path>
                    <path d="M432.920012,103.461538 C432.920012,105.423967 431.242803,107.020961 429.180272,107.020961 C427.117742,107.020961 425.440533,105.423967 425.440533,103.461538 L425.440533,102.537275 C425.440533,99.484477 422.829324,97 419.620805,97 C416.411039,97 413.79983,99.484477 413.79983,102.537275 L413.79983,103.461538 C413.79983,105.423967 412.122621,107.020961 410.060091,107.020961 C407.99756,107.020961 406.320351,105.423967 406.320351,103.461538 L406.320351,102.537275 C406.320351,99.484477 403.709143,97 400.500623,97 C397.290857,97 394.679649,99.484477 394.679649,102.537275 L394.679649,103.461538 C394.679649,105.423967 393.00244,107.020961 390.939909,107.020961 C388.877379,107.020961 387.20017,105.423967 387.20017,103.461538 L387.20017,102.537275 C387.20017,99.484477 384.588961,97 381.380442,97 C378.170676,97 375.559467,99.484477 375.559467,102.537275 L375.559467,103.461538 C375.559467,105.423967 373.882258,107.020961 371.819728,107.020961 C369.757197,107.020961 368.079988,105.423967 368.079988,103.461538 L368.079988,103.218311 L366,103.218311 L366,103.461538 C366,106.515523 368.611209,109 371.819728,109 C375.029494,109 377.639456,106.515523 377.639456,103.461538 L377.639456,102.537275 C377.639456,100.576033 379.317912,98.979039 381.380442,98.979039 C383.441726,98.979039 385.120181,100.576033 385.120181,102.537275 L385.120181,103.461538 C385.120181,106.515523 387.73139,109 390.939909,109 C394.149676,109 396.759637,106.515523 396.759637,103.461538 L396.759637,102.537275 C396.759637,100.576033 398.438093,98.979039 400.500623,98.979039 C402.561907,98.979039 404.240363,100.576033 404.240363,102.537275 L404.240363,103.461538 C404.240363,106.515523 406.851571,109 410.060091,109 C413.26861,109 415.879819,106.515523 415.879819,103.461538 L415.879819,102.537275 C415.879819,100.576033 417.558274,98.979039 419.620805,98.979039 C421.682088,98.979039 423.360544,100.576033 423.360544,102.537275 L423.360544,103.461538 C423.360544,106.515523 425.971753,109 429.180272,109 C432.388791,109 435,106.515523 435,103.461538 L432.920012,103.461538" id="Fill-59" fill="#373737"></path>
                    <path d="M6.51519739,102.259415 L8.97088622,102.259415 L8.97088622,56.7466113 L6.51519739,56.7466113 L6.51519739,102.259415 Z M2.03039478,110.001446 L8.97088622,110.001446 L8.97088622,104.257969 L2.03039478,104.257969 L2.03039478,110.001446 Z M2.03039478,56.7466113 L4.48480261,56.7466113 L4.48480261,102.259415 L2.02911378,102.259415 L2.03039478,56.7466113 Z M6.54978456,50.8946949 L8.38802842,54.7480576 L2.61325259,54.7480576 L4.45405846,50.8946949 L6.54978456,50.8946949 Z M11,55.5247826 L5.50576453,44 L0,55.5235217 L0,112 L11,112 L11,55.5247826 Z" id="Fill-71" fill="#FFFFFF"></path>
                    <path d="M59.7074393,71.8565929 L59.7074393,99.6574707 L53.0546545,92.7512653 C52.3569986,92.027034 51.2237896,92.0190314 50.5222793,92.7492646 C49.8246234,93.4734959 49.8265506,94.6518722 50.5242065,95.3781041 L60.233572,105.457323 C60.3973862,105.625376 60.5978177,105.763421 60.8155943,105.85545 C61.2530746,106.047511 61.7464445,106.047511 62.1858521,105.859451 C62.4017014,105.763421 62.6002057,105.625376 62.76402,105.457323 L72.4753127,95.3741028 C73.1748958,94.6498716 73.1748958,93.4734959 72.4753127,92.7492646 C71.7776568,92.0230327 70.6444478,92.0230327 69.9448647,92.747264 L63.2901527,99.6574707 L63.2882255,71.8585935 C63.2882255,70.8302651 62.4884266,70 61.4959051,70 C60.5110926,70 59.7112937,70.8302651 59.7074393,71.8565929" id="Fill-79" fill="#FFFFFF"></path>
                </g>
                <g id="icons" transform="translate(33.000000, 180.000000)">
                    <path d="M314.73786,395.929677 L285.639683,430.538069 C281.78793,435.118579 282.19758,441.971726 286.566603,446.046617 C289.89501,449.150793 294.747455,449.881913 298.817919,447.88763 C313.638227,440.628403 347.668696,423.798554 346.989996,422.654308 C346.476197,421.788415 338.832577,408.391306 332.671335,397.585707 C328.858638,390.899044 319.677963,390.053412 314.73786,395.929677" id="Fill-4" fill="#FFFFFF"></path>
                    <path d="M367.056226,427.683145 L301.083658,449.422999 C295.040428,451.415855 288.541775,448.080461 286.570574,441.976193 C284.599374,435.871925 287.899687,429.307633 293.942916,427.316523 L359.916349,405.576669 C365.959578,403.584686 372.457367,406.919207 374.429432,413.023475 C376.400633,419.127743 373.100319,425.692035 367.056226,427.683145" id="Fill-5" fill="#77FFD4"></path>
                    <path d="M435.262414,395.929677 L464.359947,430.538069 C468.212597,435.118579 467.802076,441.971726 463.43302,446.046617 C460.105455,449.150793 455.252105,449.881913 451.18161,447.88763 C436.362055,440.628403 402.330457,423.798554 403.01003,422.654308 C403.522964,421.788415 411.166643,408.391306 417.3288,397.585707 C421.140659,390.899044 430.321405,390.053412 435.262414,395.929677" id="Fill-6" fill="#FFFFFF"></path>
                    <path d="M383.943745,427.683145 L449.916075,449.422999 C455.960146,451.415855 462.457912,448.080461 464.429106,441.976193 C466.401163,435.871925 463.099998,429.307633 457.055926,427.316523 L391.083597,405.576669 C385.040389,403.584686 378.542623,406.919207 376.570566,413.023475 C374.599372,419.127743 377.899674,425.692035 383.943745,427.683145" id="Fill-7" fill="#77FFD4"></path>
                    <path d="M419,401 L335,399.274181 L335,388.37946 C335,370.591929 352.935402,354 370.570785,354 L383.813101,354 C399.47891,354 419,370.707914 419,386.50975 L419,401" id="Fill-8" fill="#FFFFFF"></path>
                    <path d="M382.563835,334 L370.436165,334 C367.986165,334 366,336.047542 366,338.573252 L366,358.175529 C366,364.153509 370.701214,369 376.5,369 C382.297937,369 387,364.153509 387,358.175529 L387,338.573252 C387,336.047542 385.013835,334 382.563835,334" id="Fill-9" fill="#77FFD4"></path>
                    <path d="M366,354 C366,354 366.84948,360 376.499575,360 C386.148821,360 387,354 387,354 L366,354" id="Fill-10" fill="#42DEAD"></path>
                    <path d="M348.000433,304 C343.581896,304 340,307.80568 340,312.5 C340,317.19432 343.581896,321 348.000433,321 C352.418104,321 356,317.19432 356,312.5 C356,307.80568 352.418104,304 348.000433,304" id="Fill-11" fill="#77FFD4"></path>
                    <path d="M406.999567,304 C402.581896,304 399,307.80568 399,312.5 C399,317.19432 402.581896,321 406.999567,321 C411.418104,321 415,317.19432 415,312.5 C415,307.80568 411.418104,304 406.999567,304" id="Fill-12" fill="#77FFD4"></path>
                    <path d="M374.552321,356.82917 L374.499785,356.882934 C375.324864,356.954908 376.157695,357 377,357 C379.533804,357 381.991818,356.667879 384.342176,356.048728 C384.351649,356.027916 384.361123,356.006237 384.371458,355.983691 C397.375506,352.544543 407,340.219629 407,325.537779 L407,288.742538 C407,271.398514 393.569632,274.161278 377,274.161278 C360.431229,274.161278 347,271.398514 347,288.742538 L347,325.537779 C347,342.018114 359.129877,355.524097 374.552321,356.82917" id="Fill-13" fill="#77FFD4"></path>
                    <path d="M398.985535,261.582196 C390.794308,260.425457 378.032432,260.294343 368.717457,267.971429 C368.480155,268.167238 368.307337,268.357008 368.122482,268.548504 L360.754074,268.548504 C353.157822,268.548504 347,273.942304 347,280.597216 L347,322 C348.402319,322 349.538962,320.813071 349.538962,319.350974 L349.538962,292.662318 C349.538962,292.662318 350.008408,284.187332 357.663986,284.187332 L395.127654,284.187332 C403.284489,284.187332 404.276688,291.60564 404.371265,292.559669 L404.371265,319.350974 C404.371265,320.813071 405.507909,322 406.911087,322 L406.911087,281.365787 L406.999646,270.939615 C407.040056,266.247104 403.618088,262.235179 398.985535,261.582196" id="Fill-21" fill="#05E0A9"></path>
                    <path d="M444.965949,450 L308.034917,450 C305.254583,450 303,447.76086 303,444.99957 C303,442.23828 305.254583,440 308.034917,440 L444.965949,440 C447.746284,440 450,442.23828 450,444.99957 C450,447.76086 447.746284,450 444.965949,450" id="Fill-23" fill="#373737"></path>
                    <path d="M429.088995,450 L323.911005,450 C319.542061,450 316,446.449397 316,442.070782 L316,382.929218 C316,378.550603 319.542061,375 323.911005,375 L429.088995,375 C433.457939,375 437,378.550603 437,382.929218 L437,442.070782 C437,446.449397 433.457939,450 429.088995,450" id="Fill-24" fill="#373737"></path>
                    <path d="M535.860385,454 L232.140751,454 C230.95902,454 230,452.656574 230,451.000797 C230,449.343426 230.95902,448 232.140751,448 L535.860385,448 C537.042116,448 538,449.343426 538,451.000797 C538,452.656574 537.042116,454 535.860385,454" id="Fill-26" fill="#95FFE2"></path>
                    <path d="M222.821636,454 L188.178364,454 C186.975231,454 186,452.656574 186,451.000797 C186,449.343426 186.975231,448 188.178364,448 L222.821636,448 C224.024769,448 225,449.343426 225,451.000797 C225,452.656574 224.024769,454 222.821636,454" id="Fill-27" fill="#95FFE2"></path>
                    <path d="M579.822793,454 L545.177207,454 C543.975231,454 543,452.656574 543,451.000797 C543,449.343426 543.975231,448 545.177207,448 L579.822793,448 C581.024769,448 582,449.343426 582,451.000797 C582,452.656574 581.024769,454 579.822793,454" id="Fill-28" fill="#95FFE2"></path>
                    <path d="M596.779917,454 L589.220083,454 C587.995087,454 587,452.656574 587,451.000797 C587,449.343426 587.995087,448 589.220083,448 L596.779917,448 C598.004913,448 599,449.343426 599,451.000797 C599,452.656574 598.004913,454 596.779917,454" id="Fill-29" fill="#95FFE2"></path>
                    <path d="M178.030268,454 L161.969732,454 C160.328647,454 159,452.656574 159,451.000797 C159,449.343426 160.328647,448 161.969732,448 L178.030268,448 C179.671353,448 181,449.343426 181,451.000797 C181,452.656574 179.671353,454 178.030268,454" id="Fill-30" fill="#95FFE2"></path>
                    <path d="M296.190189,258 L283.809811,258 C270.660402,258 260,268.744902 260,281.999614 C260,295.229992 270.619881,305.958382 283.735667,305.998358 C286.395379,308.506429 289.999138,311.999131 290,312 L296.190189,306.000097 L296.191051,306.000097 C309.34046,306.000097 320,295.255194 320,281.999614 C320,268.744902 309.34046,258 296.190189,258" id="Fill-32" fill="#FFFFFF"></path>
                    <path d="M54.936302,0 L46.063698,0 C36.6399546,0 29,7.76020728 29,17.3330544 C29,26.8883274 36.6109147,34.6366094 46.0105613,34.6654811 C47.9166882,36.4768656 50.4993821,38.9993724 50.5,39 L54.936302,34.6667364 L54.9369198,34.6667364 C64.3606633,34.6667364 72,26.9065291 72,17.3330544 C72,7.76020728 64.3606633,0 54.936302,0" id="Fill-32" fill="#95FFE2"></path>
                    <path d="M411,199.500436 C411,210.822145 401.822145,220 390.500436,220 C379.177855,220 370,210.822145 370,199.500436 C370,188.177855 379.177855,179 390.500436,179 C401.822145,179 411,188.177855 411,199.500436" id="Fill-33" fill="#95FFE2"></path>
                    <path d="M275,400.5 C275,403.537313 272.537518,406 269.499544,406 C266.462482,406 264,403.537313 264,400.5 C264,397.461774 266.462482,395 269.499544,395 C272.537518,395 275,397.461774 275,400.5" id="Fill-34" fill="#FFFFFF"></path>
                    <path d="M480,204.500442 C480,207.537788 477.537102,210 474.5,210 C471.462014,210 469,207.537788 469,204.500442 C469,201.462212 471.462014,199 474.5,199 C477.537102,199 480,201.462212 480,204.500442" id="Fill-35" fill="#FFFFFF"></path>
                    <path d="M443.997414,230.582965 C434.952795,230.582965 427.593052,237.89525 427.593052,246.883464 C427.593052,255.870818 434.952795,263.183102 443.997414,263.183102 L466.557419,263.183102 C466.77485,263.183102 466.983619,263.271762 467.134348,263.428423 L469.60752,266.009888 L471.670951,263.476627 C471.82168,263.29156 472.050372,263.183102 472.290326,263.183102 L475.002586,263.183102 C484.047205,263.183102 491.406082,255.870818 491.406082,246.883464 C491.406082,237.89525 484.047205,230.582965 475.002586,230.582965 L443.997414,230.582965 Z M469.656896,268 C469.439465,268 469.230697,267.91134 469.079967,267.754679 L466.215246,264.766929 L443.997414,264.766929 C434.073542,264.766929 426,256.744504 426,246.883464 C426,237.022424 434.073542,229 443.997414,229 L475.002586,229 C484.926458,229 493,237.022424 493,246.883464 C493,256.744504 484.926458,264.766929 475.002586,264.766929 L472.670614,264.766929 L470.276272,267.706476 C470.131607,267.883795 469.918507,267.990531 469.688948,267.999139 C469.677687,268 469.667292,268 469.656896,268 Z" id="Fill-36" fill="#FFFFFF"></path>
                    <path d="M262.121685,228 L239.878315,228 C234.422607,228 230,232.477966 230,238.00088 C230,243.522913 234.422607,248 239.878315,248 L262.121685,248 C267.577393,248 272,243.522913 272,238.00088 C272,232.477966 267.577393,228 262.121685,228" id="Fill-37" fill="#95FFE2"></path>
                    <polyline id="Fill-38" fill="#95FFE2" points="246 247 243.297274 251 241 247 246 247"></polyline>
                    <path d="M494.0663,281 L472.9337,281 C463.028454,281 455,288.981896 455,298.829702 C455,308.676634 463.028454,316.65853 472.9337,316.65853 L475.137503,316.65853 L479.678727,323 L483.838438,316.65853 L494.0663,316.65853 C503.970667,316.65853 512,308.676634 512,298.829702 C512,288.981896 503.970667,281 494.0663,281" id="Fill-39" fill="#FFFFFF"></path>
                    <path d="M443.829894,107 L414.170106,107 C400.268005,107 389,118.212664 389,132.046486 C389,145.879081 400.268005,157.091745 414.170106,157.091745 L417.263163,157.091745 L423.636809,166 L429.475001,157.091745 L443.829894,157.091745 C457.730761,157.091745 469,145.879081 469,132.046486 C469,118.212664 457.730761,107 443.829894,107" id="Fill-39" fill="#95FFE2" transform="translate(429.000000, 136.500000) scale(-1, 1) translate(-429.000000, -136.500000) "></path>
                    <path d="M68.5373678,92 L31.4626322,92 C14.0850066,92 0,106.063341 0,123.414237 C0,140.763593 14.0850066,154.826935 31.4626322,154.826935 L35.3289535,154.826935 L43.2960118,166 L50.593751,154.826935 L68.5373678,154.826935 C85.9134512,154.826935 100,140.763593 100,123.414237 C100,106.063341 85.9134512,92 68.5373678,92" id="Fill-39" fill="#FFFFFF" transform="translate(50.000000, 129.000000) scale(-1, 1) translate(-50.000000, -129.000000) "></path>
                    <path d="M335.133994,232 C334.655937,232 334.179201,231.817753 333.814715,231.453259 L323.545738,221.184039 C322.818087,220.456372 322.818087,219.274408 323.545738,218.546741 C324.274708,217.817753 325.456644,217.817753 326.184294,218.546741 L336.453272,228.81464 C337.182243,229.543628 337.182243,230.725592 336.453272,231.453259 C336.088787,231.817753 335.61205,232 335.133994,232" id="Fill-40" fill="#373737"></path>
                    <path d="M324.865016,232 C324.38828,232 323.910223,231.817753 323.545738,231.453259 C322.818087,230.725592 322.818087,229.543628 323.545738,228.81464 L333.814715,218.546741 C334.543686,217.817753 335.724301,217.817753 336.453272,218.546741 C337.182243,219.274408 337.182243,220.456372 336.453272,221.184039 L326.184294,231.453259 C325.819809,231.817753 325.343073,232 324.865016,232" id="Fill-41" fill="#373737"></path>
                    <path d="M477.204586,242 L441.795414,242 C440.80499,242 440,241.103498 440,239.999517 C440,238.895537 440.80499,238 441.795414,238 L477.204586,238 C478.19501,238 479,238.895537 479,239.999517 C479,241.103498 478.19501,242 477.204586,242" id="Fill-43" fill="#FFFFFF"></path>
                    <path d="M460.202665,248 L441.797335,248 C440.805851,248 440,247.103498 440,245.999517 C440,244.895537 440.805851,244 441.797335,244 L460.202665,244 C461.195016,244 462,244.895537 462,245.999517 C462,247.103498 461.195016,248 460.202665,248" id="Fill-44" fill="#FFFFFF"></path>
                    <path d="M399,205.999903 C399,202.133749 395.866404,199 392.000438,199 L389.999562,199 C386.134472,199 383,202.133749 383,205.999903 L383,208 L399,208 L399,205.999903" id="Fill-48" fill="#FFFFFF"></path>
                    <path d="M390.999562,190 C393.208301,190 395,191.791502 395,194 C395,196.209374 393.208301,198 390.999562,198 C388.790822,198 387,196.209374 387,194 C387,191.791502 388.790822,190 390.999562,190" id="Fill-49" fill="#FFFFFF"></path>
                    <path d="M473,375.431458 C473,368.013091 467.179771,362 460.000372,362 L458.999628,362 C451.820229,362 446,368.013091 446,375.431458 C446,381.995757 450.55904,387.451584 456.582767,388.623224 L459.235787,393 L462.351075,388.633608 C468.407463,387.488793 473,382.019986 473,375.431458" id="Fill-51" fill="#FFFFFF"></path>
                    <path d="M23,47.2321842 C23,42.6854431 19.3354114,39 14.8150492,39 L14.1849508,39 C9.66458857,39 6,42.6854431 6,47.2321842 C6,51.2554641 8.8705065,54.599358 12.6632238,55.3174599 L14.3336435,58 L16.2951211,55.3238241 C20.1084023,54.6221633 23,51.270314 23,47.2321842" id="Fill-51" fill="#95FFE2"></path>
                    <path d="M499.801089,426 C499.493774,426 499.186459,425.881992 498.953002,425.648524 L492.350823,419.046882 C491.883059,418.579096 491.883059,417.819262 492.350823,417.351476 C492.819436,416.882841 493.579234,416.882841 494.047847,417.351476 L500.649177,423.952269 C501.116941,424.420904 501.116941,425.179889 500.649177,425.648524 C500.414871,425.881992 500.107556,426 499.801089,426" id="Fill-54" fill="#FFFFFF"></path>
                    <path d="M493.198911,426 C492.892444,426 492.585978,425.881992 492.350823,425.648524 C491.883059,425.179889 491.883059,424.420904 492.350823,423.952269 L498.953002,417.351476 C499.421615,416.882841 500.180564,416.882841 500.649177,417.351476 C501.116941,417.819262 501.116941,418.579096 500.649177,419.046882 L494.047847,425.648524 C493.813541,425.881992 493.506226,426 493.198911,426" id="Fill-55" fill="#FFFFFF"></path>
                </g>
            </g>
        </g>
    </g>
</svg>