<svg xmlns="http://www.w3.org/2000/svg" width="15" height="19" viewBox="0 0 15 19" version="1.1"><title>cone User@2x</title><desc>Created with Sketch.</desc><g stroke="none" stroke-width="1" fill="none" fill-rule="evenodd"><g transform="translate(-223.000000, -330.000000)" fill="#FFFFFF"><g transform="translate(213.000000, 162.000000)"><g transform="translate(0.000000, 48.000000)"><g transform="translate(0.000000, 115.000000)"><g transform="translate(10.000000, 5.000000)"><g transform="translate(0.000000, 0.716000)"><path d="M14.9 13.8L14.9 13.8C14.9 13.8 14.9 13.8 14.9 13.7 14.8 13 14.8 11.4 13.2 10.8 13.2 10.8 13.2 10.8 13.2 10.8 11.6 10.4 10.2 9.5 10.2 9.5 10 9.3 9.7 9.4 9.6 9.6 9.4 9.8 9.5 10.1 9.7 10.3 9.7 10.3 11.2 11.3 12.9 11.7 13.8 12 13.9 12.9 13.9 13.7 13.9 13.8 13.9 13.8 13.9 13.8 13.9 14.2 13.9 14.7 13.8 14.9 13.2 15.3 11 16.4 7.5 16.4 4.1 16.4 1.8 15.3 1.2 14.9 1.2 14.7 1.1 14.2 1.1 13.8 1.1 13.8 1.1 13.8 1.1 13.7 1.2 12.9 1.3 12 2.1 11.7 3.9 11.3 5.3 10.3 5.4 10.3 5.6 10.1 5.6 9.8 5.5 9.6 5.3 9.4 5 9.3 4.8 9.5 4.8 9.5 3.5 10.4 1.8 10.8 1.8 10.8 1.8 10.8 1.8 10.8 0.2 11.4 0.2 13 0.2 13.7 0.2 13.7 0.2 13.8 0.2 13.8L0.2 13.8C0.2 14 0.2 15 0.4 15.4 0.4 15.5 0.5 15.6 0.5 15.7 0.6 15.7 3.2 17.4 7.5 17.4 11.8 17.4 14.4 15.7 14.5 15.7 14.6 15.6 14.7 15.5 14.7 15.4 14.9 15 14.9 14 14.9 13.8M4.8 3.9C4.8 3.9 4.8 3.9 4.8 3.9 4.9 1.3 6.7 1.1 7.5 1.1L7.5 1.1 7.5 1.1C8.5 1.1 10.1 1.5 10.3 3.9 10.3 3.9 10.3 3.9 10.3 3.9 10.3 4 10.5 6.4 9.4 7.7 8.9 8.2 8.3 8.4 7.5 8.4L7.5 8.4 7.5 8.4C6.7 8.4 6.1 8.2 5.7 7.7 4.5 6.4 4.8 4 4.8 3.9M7.5 9.4L7.5 9.4 7.5 9.4 7.6 9.4C8.6 9.4 9.5 9 10.1 8.3 11.5 6.8 11.2 4.1 11.2 3.8 11.1 1.9 10.2 1 9.5 0.6 8.9 0.3 8.3 0.1 7.6 0.1L7.5 0.1 7.5 0.1 7.5 0.1C7.1 0.1 6.3 0.2 5.6 0.6 4.8 1 3.9 1.9 3.8 3.8 3.8 4.1 3.6 6.8 4.9 8.3 5.6 9 6.4 9.4 7.5 9.4"/></g></g></g></g></g></g></g></svg>