<svg xmlns="http://www.w3.org/2000/svg" width="13" height="18" viewBox="0 0 13 18" version="1.1"><title>Fill 58@2x</title><desc>Created with Sketch.</desc><g stroke="none" stroke-width="1" fill="none" fill-rule="evenodd"><g transform="translate(-224.000000, -366.000000)" fill="#FFFFFF"><g transform="translate(213.000000, 162.000000)"><g transform="translate(0.000000, 48.000000)"><g transform="translate(0.000000, 150.000000)"><path d="M23.1 22.7L23.1 22.7C23.1 22.9 22.9 23.1 22.7 23.1L12.3 23.1C12.1 23.1 11.9 22.9 11.9 22.7L11.9 14.8C11.9 14.5 12.1 14.3 12.3 14.3L22.7 14.3C22.9 14.3 23.1 14.5 23.1 14.8L23.1 22.7ZM14.5 10.1C14.5 8.4 15.8 7.1 17.5 7.1 19.2 7.1 20.6 8.4 20.6 10.1L20.6 13.5 14.5 13.5 14.5 10.1ZM22.7 13.5L21.4 13.5 21.4 10.1C21.4 8 19.7 6.2 17.5 6.2 15.4 6.2 13.6 8 13.6 10.1L13.6 13.5 12.3 13.5C11.6 13.5 11.1 14.1 11.1 14.8L11.1 22.7C11.1 23.4 11.6 24 12.3 24L22.7 24C23.4 24 24 23.4 24 22.7L24 14.8C24 14.1 23.4 13.5 22.7 13.5L22.7 13.5Z"/></g></g></g></g></g></svg>