<svg xmlns="http://www.w3.org/2000/svg" width="530" height="347" viewBox="0 0 530 347" version="1.1"><title>Group@2x</title><desc>Created with Sketch.</desc><g stroke="none" stroke-width="1" fill="none" fill-rule="evenodd"><g transform="translate(-373.000000, -150.000000)" fill="#D8D8D8"><g transform="translate(373.000000, 150.000000)"><rect x="175" y="0" width="184" height="42" rx="21"/><rect x="140" y="289" width="184" height="21" rx="10.5"/><rect x="340" y="288" width="82" height="21" rx="10.5"/><rect x="140" y="326" width="148" height="21" rx="10.5"/><rect x="0" y="99" width="97" height="95" rx="26"/><rect x="140" y="99" width="184" height="21" rx="10.5"/><rect x="140" y="173" width="184" height="21" rx="10.5"/><rect x="346" y="99" width="184" height="21" rx="10.5"/><rect x="140" y="136" width="126" height="21" rx="10.5"/><rect x="283" y="136" width="82" height="21" rx="10.5"/><rect x="382" y="136" width="148" height="21" rx="10.5"/></g></g></g></svg>