<svg xmlns="http://www.w3.org/2000/svg" width="530" height="292" viewBox="0 0 530 292" version="1.1"><title>Group</title><desc>Created with Sketch.</desc><g stroke="none" stroke-width="1" fill="none" fill-rule="evenodd"><g transform="translate(-238.000000, -185.000000)" fill="#D8D8D8"><g transform="translate(238.000000, 185.000000)"><rect x="0" y="0" width="184" height="42" rx="21"/><rect x="4" y="234" width="184" height="21" rx="10.5"/><rect x="204" y="233" width="82" height="21" rx="10.5"/><rect x="4" y="271" width="148" height="21" rx="10.5"/><rect x="0" y="89" width="97" height="95" rx="26"/><rect x="140" y="89" width="184" height="21" rx="10.5"/><rect x="140" y="163" width="184" height="21" rx="10.5"/><rect x="346" y="89" width="184" height="21" rx="10.5"/><rect x="140" y="126" width="126" height="21" rx="10.5"/><rect x="283" y="126" width="82" height="21" rx="10.5"/><rect x="382" y="126" width="148" height="21" rx="10.5"/></g></g></g></svg>